<?xml version="1.0" encoding="UTF-8" standalone="no"?>
<svg
   xmlns:dc="http://purl.org/dc/elements/1.1/"
   xmlns:cc="http://creativecommons.org/ns#"
   xmlns:rdf="http://www.w3.org/1999/02/22-rdf-syntax-ns#"
   xmlns:svg="http://www.w3.org/2000/svg"
   xmlns="http://www.w3.org/2000/svg"
   id="svg171"
   height="152.3492mm"
   width="155.3972mm"
   version="1.0">
  <metadata
     id="metadata175">
    <rdf:RDF>
      <cc:Work
         rdf:about="">
        <dc:format>image/svg+xml</dc:format>
        <dc:type
           rdf:resource="http://purl.org/dc/dcmitype/StillImage" />
      </cc:Work>
    </rdf:RDF>
  </metadata>
  <defs
     id="defs3">
    <pattern
       y="0"
       x="0"
       height="6"
       width="6"
       patternUnits="userSpaceOnUse"
       id="WMFhbasepattern" />
  </defs>
  <path
     id="path5"
     d="  M 575.04694,277.39585   L 587.232,266.86229   L 335.49298,266.86229   L 323.30792,277.39585   L 575.04694,277.39585  z "
     style="fill:#67a183;fill-rule:evenodd;fill-opacity:1;stroke:none;" />
  <path
     id="path7"
     d="  M 575.04694,529.1368   L 587.232,518.60325   L 587.232,266.86229   L 575.04694,277.39585   L 575.04694,529.1368  z "
     style="fill:#69a085;fill-rule:evenodd;fill-opacity:1;stroke:none;" />
  <path
     id="path9"
     d="  M 323.30792,10.533555   L 335.49298,0   L 587.232,0   L 575.04694,10.533555   L 323.30792,10.533555  z "
     style="fill:#f4ee9b;fill-rule:evenodd;fill-opacity:1;stroke:none;" />
  <path
     id="path11"
     d="  M 575.04694,10.533555   L 587.232,0   L 587.232,251.74095   L 575.04694,262.27451   L 575.04694,10.533555  z "
     style="fill:#f4efa2;fill-rule:evenodd;fill-opacity:1;stroke:none;" />
  <path
     id="path13"
     d="  M 308.2234,262.27451   L 320.37176,251.74095   L 320.37176,0   L 308.2234,10.533555   L 308.2234,262.27451  z "
     style="fill:#e3a9a6;fill-rule:evenodd;fill-opacity:1;stroke:none;" />
  <path
     id="path15"
     d="  M 308.2234,10.533555   L 320.37176,0   L 68.63274,0   L 56.484378,10.533555   L 308.2234,10.533555  z "
     style="fill:#e2a5a0;fill-rule:evenodd;fill-opacity:1;stroke:none;" />
  <path
     id="path17"
     d="  M 56.484378,277.39585   L 68.63274,266.86229   L 320.37176,266.86229   L 308.2234,277.39585   L 56.484378,277.39585  z "
     style="fill:#ececee;fill-rule:evenodd;fill-opacity:1;stroke:none;" />
  <path
     id="path19"
     d="  M 308.2234,277.39585   L 320.37176,266.86229   L 320.37176,518.60325   L 308.2234,529.1368   L 308.2234,277.39585  z "
     style="fill:#ececee;fill-rule:evenodd;fill-opacity:1;stroke:none;" />
  <path
     id="path21"
     d="  M 575.04694,277.39585   L 587.232,266.86229   L 335.49298,266.86229   L 323.30792,277.39585   L 575.04694,277.39585  z "
     style="fill:#67a183;fill-rule:evenodd;fill-opacity:1;stroke:none;" />
  <path
     id="path23"
     d="  M 575.04694,529.1368   L 587.232,518.60325   L 587.232,266.86229   L 575.04694,277.39585   L 575.04694,529.1368  z "
     style="fill:#69a085;fill-rule:evenodd;fill-opacity:1;stroke:none;" />
  <path
     id="path25"
     d="  M 323.30792,10.533555   L 335.49298,0   L 587.232,0   L 575.04694,10.533555   L 323.30792,10.533555  z "
     style="fill:#f4ee9b;fill-rule:evenodd;fill-opacity:1;stroke:none;" />
  <path
     id="path27"
     d="  M 575.04694,10.533555   L 587.232,0   L 587.232,251.74095   L 575.04694,262.27451   L 575.04694,10.533555  z "
     style="fill:#f4efa2;fill-rule:evenodd;fill-opacity:1;stroke:none;" />
  <path
     id="path29"
     d="  M 308.2234,262.27451   L 320.37176,251.74095   L 320.37176,0   L 308.2234,10.533555   L 308.2234,262.27451  z "
     style="fill:#e3a9a6;fill-rule:evenodd;fill-opacity:1;stroke:none;" />
  <path
     id="path31"
     d="  M 308.2234,10.533555   L 320.37176,0   L 68.63274,0   L 56.484378,10.533555   L 308.2234,10.533555  z "
     style="fill:#e2a5a0;fill-rule:evenodd;fill-opacity:1;stroke:none;" />
  <path
     id="path33"
     d="  M 56.484378,277.39585   L 68.63274,266.86229   L 320.37176,266.86229   L 308.2234,277.39585   L 56.484378,277.39585  z "
     style="fill:#ececee;fill-rule:evenodd;fill-opacity:1;stroke:none;" />
  <path
     id="path35"
     d="  M 308.2234,277.39585   L 320.37176,266.86229   L 320.37176,518.60325   L 308.2234,529.1368   L 308.2234,277.39585  z "
     style="fill:#ececee;fill-rule:evenodd;fill-opacity:1;stroke:none;" />
  <path
     id="path37"
     d="  M 56.484378,277.39585   L 308.2234,277.39585   L 308.2234,529.1368   L 56.484378,529.1368   L 56.484378,277.39585  z "
     style="fill:#dededd;fill-rule:evenodd;fill-opacity:1;stroke:none;" />
  <path
     id="path39"
     d="  M 56.484378,262.27451   L 308.2234,262.27451   L 308.2234,10.533555   L 56.484378,10.533555   L 56.484378,262.27451  z "
     style="fill:#da251d;fill-rule:evenodd;fill-opacity:1;stroke:none;" />
  <path
     id="path41"
     d="  M 575.04694,262.27451   L 323.30792,262.27451   L 323.30792,10.533555   L 575.04694,10.533555   L 575.04694,262.27451  z "
     style="fill:#fff500;fill-rule:evenodd;fill-opacity:1;stroke:none;" />
  <path
     id="path43"
     d="  M 575.04694,277.39585   L 323.30792,277.39585   L 323.30792,529.1368   L 575.04694,529.1368   L 575.04694,277.39585  z "
     style="fill:#00923f;fill-rule:evenodd;fill-opacity:1;stroke:none;" />
  <path
     id="path45"
     d="  M 575.04694,277.39585   L 569.17462,282.9746   L 324.15206,282.9746   L 323.30792,277.39585   L 575.04694,277.39585  z "
     style="fill:#67a183;fill-rule:evenodd;fill-opacity:1;stroke:none;" />
  <path
     id="path47"
     d="  M 323.30792,277.39585   L 324.15206,282.9746   L 324.15206,527.99903   L 323.30792,529.1368   L 323.30792,277.39585  z "
     style="fill:#141516;fill-rule:evenodd;fill-opacity:1;stroke:none;" />
  <path
     id="path49"
     d="  M 323.30792,529.1368   L 324.15206,527.99903   L 569.17462,527.99903   L 575.04694,529.1368   L 323.30792,529.1368  z "
     style="fill:#141516;fill-rule:evenodd;fill-opacity:1;stroke:none;" />
  <path
     id="path51"
     d="  M 575.04694,529.1368   L 569.17462,527.99903   L 569.17462,282.9746   L 575.04694,277.39585   L 575.04694,529.1368  z "
     style="fill:#639e7f;fill-rule:evenodd;fill-opacity:1;stroke:none;" />
  <path
     id="path53"
     d="  M 575.04694,262.27451   L 569.17462,261.13674   L 324.15206,261.13674   L 323.30792,262.27451   L 575.04694,262.27451  z "
     style="fill:#161719;fill-rule:evenodd;fill-opacity:1;stroke:none;" />
  <path
     id="path55"
     d="  M 323.30792,262.27451   L 324.15206,261.13674   L 324.15206,16.112302   L 323.30792,10.533555   L 323.30792,262.27451  z "
     style="fill:#161719;fill-rule:evenodd;fill-opacity:1;stroke:none;" />
  <path
     id="path57"
     d="  M 323.30792,10.533555   L 324.15206,16.112302   L 569.17462,16.112302   L 575.04694,10.533555   L 323.30792,10.533555  z "
     style="fill:#f4ee9b;fill-rule:evenodd;fill-opacity:1;stroke:none;" />
  <path
     id="path59"
     d="  M 575.04694,10.533555   L 569.17462,16.112302   L 569.17462,261.13674   L 575.04694,262.27451   L 575.04694,10.533555  z "
     style="fill:#f8f398;fill-rule:evenodd;fill-opacity:1;stroke:none;" />
  <path
     id="path61"
     d="  M 56.484378,262.27451   L 57.291822,261.13674   L 302.31437,261.13674   L 308.2234,262.27451   L 56.484378,262.27451  z "
     style="fill:#151618;fill-rule:evenodd;fill-opacity:1;stroke:none;" />
  <path
     id="path63"
     d="  M 308.2234,262.27451   L 302.31437,261.13674   L 302.31437,16.112302   L 308.2234,10.533555   L 308.2234,262.27451  z "
     style="fill:#e2a29c;fill-rule:evenodd;fill-opacity:1;stroke:none;" />
  <path
     id="path65"
     d="  M 308.2234,10.533555   L 302.31437,16.112302   L 57.291822,16.112302   L 56.484378,10.533555   L 308.2234,10.533555  z "
     style="fill:#e2a5a0;fill-rule:evenodd;fill-opacity:1;stroke:none;" />
  <path
     id="path67"
     d="  M 56.484378,10.533555   L 57.291822,16.112302   L 57.291822,261.13674   L 56.484378,262.27451   L 56.484378,10.533555  z "
     style="fill:#151618;fill-rule:evenodd;fill-opacity:1;stroke:none;" />
  <path
     id="path69"
     d="  M 56.484378,277.39585   L 57.291822,282.9746   L 302.31437,282.9746   L 308.2234,277.39585   L 56.484378,277.39585  z "
     style="fill:#ececee;fill-rule:evenodd;fill-opacity:1;stroke:none;" />
  <path
     id="path71"
     d="  M 308.2234,277.39585   L 302.31437,282.9746   L 302.31437,527.99903   L 308.2234,529.1368   L 308.2234,277.39585  z "
     style="fill:#ececee;fill-rule:evenodd;fill-opacity:1;stroke:none;" />
  <path
     id="path73"
     d="  M 308.2234,529.1368   L 302.31437,527.99903   L 57.291822,527.99903   L 56.484378,529.1368   L 308.2234,529.1368  z "
     style="fill:#151718;fill-rule:evenodd;fill-opacity:1;stroke:none;" />
  <path
     id="path75"
     d="  M 56.484378,529.1368   L 57.291822,527.99903   L 57.291822,282.9746   L 56.484378,277.39585   L 56.484378,529.1368  z "
     style="fill:#151718;fill-rule:evenodd;fill-opacity:1;stroke:none;" />
  <path
     id="path77"
     d="  M 569.17462,282.9746   L 324.15206,282.9746   L 324.15206,527.99903   L 569.17462,527.99903   L 569.17462,282.9746  z "
     style="fill:#278f55;fill-rule:evenodd;fill-opacity:1;stroke:none;" />
  <path
     id="path79"
     d="  M 569.17462,261.13674   L 324.15206,261.13674   L 324.15206,16.112302   L 569.17462,16.112302   L 569.17462,261.13674  z "
     style="fill:#eee62e;fill-rule:evenodd;fill-opacity:1;stroke:none;" />
  <path
     id="path81"
     d="  M 57.291822,261.13674   L 302.31437,261.13674   L 302.31437,16.112302   L 57.291822,16.112302   L 57.291822,261.13674  z "
     style="fill:#d25b53;fill-rule:evenodd;fill-opacity:1;stroke:none;" />
  <path
     id="path83"
     d="  M 57.291822,282.9746   L 302.31437,282.9746   L 302.31437,527.99903   L 57.291822,527.99903   L 57.291822,282.9746  z "
     style="fill:#d6d8dc;fill-rule:evenodd;fill-opacity:1;stroke:none;" />
  <text
     id="text95"
     y="0.000000"
     x="109.680593"
     transform="matrix(1.000000,-0.000000,0.000000,1.000000,73.183788,396.641565)"
     style="font-size:28.000000px;font-style:normal;font-variant:normal;font-weight:700;font-stretch:Normal;line-height:99.096162%;letter-spacing:0px;word-spacing:0px;fill:#000000;fill-opacity:1;stroke:none;font-family:Arial;text-align:center;text-anchor:middle;"
     xml:space="preserve"><tspan
       id="tspan89"
       y="0.000000"
       x="109.680593"><tspan
         id="tspan85"
         style="fill:#1F1A17;font-size:28.000000px;font-style:normal;font-variant:normal;font-weight:700;font-stretch:Normal;font-family:Arial;"
         dy="0.000000"
         dx="0.000000">Pouco </tspan><tspan
         id="tspan87"
         style="fill:#1F1A17;font-size:28.000000px;font-style:normal;font-variant:normal;font-weight:700;font-stretch:Normal;font-family:Arial;"
         dy="0.000000"
         dx="0.000000">resultado</tspan></tspan><tspan
       id="tspan93"
       y="27.746925"
       x="109.685978"><tspan
         id="tspan91"
         style="fill:#9B212E;font-size:28.000000px;font-style:normal;font-variant:normal;font-weight:700;font-stretch:Normal;font-family:Arial;"
         dy="0.000000"
         dx="0.000000">Pouco esforço</tspan></tspan></text>
  <path
     id="path97"
     d="  M 468.42763,494.08612   L 468.42763,486.37864   L 429.96393,486.37864   L 429.96393,494.08612   L 468.42763,494.08612  z    M 449.19578,520.73198   L 450.77396,520.69528   L 452.31545,520.54847   L 453.82023,520.36496   L 455.32501,520.10804   L 456.79309,519.74102   L 458.26117,519.33729   L 459.65585,518.86016   L 461.05052,518.30963   L 462.4085,517.68569   L 463.69307,517.02505   L 464.97764,516.291   L 466.22551,515.48355   L 467.43667,514.6394   L 468.57443,513.75855   L 469.67549,512.76759   L 470.73985,511.77662   L 471.73081,510.71226   L 472.72176,509.61119   L 473.60261,508.43672   L 474.44675,507.26224   L 475.2542,506.01437   L 475.98824,504.72979   L 476.68558,503.44521   L 477.27281,502.08722   L 477.82334,500.69253   L 478.30046,499.26115   L 478.70419,497.82976   L 479.07121,496.36167   L 479.32812,494.85687   L 479.51163,493.35208   L 479.65844,491.81058   L 479.69514,490.23238   L 479.65844,488.65419   L 479.51163,487.11269   L 479.32812,485.6079   L 479.07121,484.1031   L 478.70419,482.63501   L 478.30046,481.16692   L 477.82334,479.77223   L 477.27281,478.37755   L 476.68558,477.01956   L 475.98824,475.69828   L 475.2542,474.4504   L 474.44675,473.20253   L 473.60261,471.99135   L 472.72176,470.85358   L 471.73081,469.75251   L 470.73985,468.68814   L 469.67549,467.66048   L 468.57443,466.70622   L 467.43667,465.82537   L 466.22551,464.94451   L 464.97764,464.17376   L 463.69307,463.43972   L 462.4085,462.74238   L 461.05052,462.15514   L 459.65585,461.6046   L 458.26117,461.12747   L 456.79309,460.68705   L 455.32501,460.35673   L 453.82023,460.09981   L 452.31545,459.8796   L 450.77396,459.76949   L 449.19578,459.73279   L 447.61759,459.76949   L 446.07611,459.8796   L 444.57133,460.09981   L 443.06654,460.35673   L 441.59846,460.68705   L 440.13038,461.12747   L 438.73571,461.6046   L 437.34103,462.15514   L 435.98306,462.74238   L 434.66179,463.43972   L 433.41392,464.17376   L 432.16605,464.94451   L 430.95488,465.82537   L 429.81712,466.70622   L 428.71606,467.66048   L 427.6517,468.68814   L 426.62405,469.75251   L 425.6698,470.85358   L 424.78895,471.99135   L 423.9081,473.20253   L 423.13736,474.4504   L 422.40332,475.69828   L 421.70598,477.01956   L 421.11875,478.37755   L 420.56822,479.77223   L 420.09109,481.16692   L 419.65067,482.63501   L 419.32035,484.1031   L 419.06344,485.6079   L 418.84322,487.11269   L 418.73312,488.65419   L 418.69642,490.23238   L 418.73312,491.81058   L 418.84322,493.35208   L 419.06344,494.85687   L 419.32035,496.36167   L 419.65067,497.82976   L 420.09109,499.26115   L 420.56822,500.69253   L 421.11875,502.08722   L 421.70598,503.44521   L 422.40332,504.72979   L 423.13736,506.01437   L 423.9081,507.26224   L 424.78895,508.43672   L 425.6698,509.61119   L 426.62405,510.71226   L 427.6517,511.77662   L 428.71606,512.76759   L 429.81712,513.75855   L 430.95488,514.6394   L 432.16605,515.48355   L 433.41392,516.291   L 434.66179,517.02505   L 435.98306,517.68569   L 437.34103,518.30963   L 438.73571,518.86016   L 440.13038,519.33729   L 441.59846,519.74102   L 443.06654,520.10804   L 444.57133,520.36496   L 446.07611,520.54847   L 447.61759,520.69528   L 449.19578,520.73198  z    M 449.19578,514.38249   L 446.73674,514.23568   L 444.35111,513.86865   L 442.03889,513.28142   L 439.80007,512.47397   L 437.70805,511.4463   L 435.72614,510.23513   L 433.85434,508.84044   L 432.12935,507.29895   L 430.58786,505.57394   L 429.19319,503.70212   L 427.98202,501.7202   L 426.95437,499.59147   L 426.14692,497.38933   L 425.55969,495.07709   L 425.19267,492.69144   L 425.04586,490.23238   L 425.19267,487.77333   L 425.55969,485.38768   L 426.14692,483.07544   L 426.95437,480.8366   L 427.98202,478.74457   L 429.19319,476.76265   L 430.58786,474.89083   L 432.12935,473.16582   L 433.85434,471.62433   L 435.72614,470.22964   L 437.70805,469.01847   L 439.80007,467.9908   L 442.03889,467.18335   L 444.35111,466.59611   L 446.73674,466.22909   L 449.19578,466.08228   L 451.65481,466.22909   L 454.04044,466.59611   L 456.35267,467.18335   L 458.55479,467.9908   L 460.6835,469.01847   L 462.66541,470.22964   L 464.53721,471.62433   L 466.22551,473.16582   L 467.80369,474.89083   L 469.19837,476.76265   L 470.40953,478.74457   L 471.43719,480.8366   L 472.24463,483.07544   L 472.83187,485.38768   L 473.19889,487.77333   L 473.30899,490.23238   L 473.19889,492.69144   L 472.83187,495.07709   L 472.24463,497.38933   L 471.43719,499.59147   L 470.40953,501.7202   L 469.19837,503.70212   L 467.80369,505.57394   L 466.22551,507.29895   L 464.53721,508.84044   L 462.66541,510.23513   L 460.6835,511.4463   L 458.55479,512.47397   L 456.35267,513.28142   L 454.04044,513.86865   L 451.65481,514.23568   L 449.19578,514.38249  z   "
     style="fill:#9b212e;fill-rule:evenodd;fill-opacity:1;stroke:none;" />
  <path
     id="path99"
     d="  M 449.19578,353.81   L 450.77396,353.7733   L 452.31545,353.66319   L 453.82023,353.47968   L 455.32501,353.18606   L 456.79309,352.85574   L 458.26117,352.45202   L 459.65585,351.97489   L 461.05052,351.42435   L 462.4085,350.80041   L 463.69307,350.13977   L 464.97764,349.40573   L 466.22551,348.59828   L 467.43667,347.75412   L 468.57443,346.83657   L 469.67549,345.88231   L 470.73985,344.85464   L 471.73081,343.79028   L 472.72176,342.68921   L 473.60261,341.55144   L 474.44675,340.34026   L 475.2542,339.12909   L 475.98824,337.84451   L 476.68558,336.52323   L 477.27281,335.16524   L 477.82334,333.80726   L 478.30046,332.37587   L 478.70419,330.94448   L 479.07121,329.43969   L 479.32812,327.97159   L 479.51163,326.4301   L 479.65844,324.8886   L 479.69514,323.3104   L 479.65844,321.76891   L 479.51163,320.22741   L 479.32812,318.68592   L 479.07121,317.18112   L 478.70419,315.71303   L 478.30046,314.28164   L 477.82334,312.85025   L 477.27281,311.49227   L 476.68558,310.13429   L 475.98824,308.813   L 475.2542,307.52842   L 474.44675,306.28055   L 473.60261,305.10607   L 472.72176,303.9316   L 471.73081,302.83053   L 470.73985,301.76616   L 469.67549,300.7752   L 468.57443,299.82094   L 467.43667,298.90339   L 466.22551,298.05923   L 464.97764,297.25178   L 463.69307,296.51774   L 462.4085,295.8571   L 461.05052,295.23316   L 459.65585,294.68262   L 458.26117,294.20549   L 456.79309,293.80177   L 455.32501,293.47145   L 453.82023,293.17783   L 452.31545,292.99432   L 450.77396,292.88421   L 449.19578,292.84751   L 447.61759,292.88421   L 446.07611,292.99432   L 444.57133,293.17783   L 443.06654,293.47145   L 441.59846,293.80177   L 440.13038,294.20549   L 438.73571,294.68262   L 437.34103,295.23316   L 435.98306,295.8571   L 434.66179,296.51774   L 433.41392,297.25178   L 432.16605,298.05923   L 430.95488,298.90339   L 429.81712,299.82094   L 428.71606,300.7752   L 427.6517,301.76616   L 426.62405,302.83053   L 425.6698,303.9316   L 424.78895,305.10607   L 423.9081,306.28055   L 423.13736,307.52842   L 422.40332,308.813   L 421.70598,310.13429   L 421.11875,311.49227   L 420.56822,312.85025   L 420.09109,314.28164   L 419.65067,315.71303   L 419.32035,317.18112   L 419.06344,318.68592   L 418.84322,320.22741   L 418.73312,321.76891   L 418.69642,323.3104   L 418.73312,324.8886   L 418.84322,326.4301   L 419.06344,327.97159   L 419.32035,329.43969   L 419.65067,330.94448   L 420.09109,332.37587   L 420.56822,333.80726   L 421.11875,335.16524   L 421.70598,336.52323   L 422.40332,337.84451   L 423.13736,339.12909   L 423.9081,340.34026   L 424.78895,341.55144   L 425.6698,342.68921   L 426.62405,343.79028   L 427.6517,344.85464   L 428.71606,345.88231   L 429.81712,346.83657   L 430.95488,347.75412   L 432.16605,348.59828   L 433.41392,349.40573   L 434.66179,350.13977   L 435.98306,350.80041   L 437.34103,351.42435   L 438.73571,351.97489   L 440.13038,352.45202   L 441.59846,352.85574   L 443.06654,353.18606   L 444.57133,353.47968   L 446.07611,353.66319   L 447.61759,353.7733   L 449.19578,353.81  z    M 449.19578,347.46051   L 446.73674,347.3504   L 444.35111,346.98338   L 442.03889,346.35944   L 439.80007,345.55199   L 437.70805,344.52432   L 435.72614,343.31315   L 433.85434,341.91846   L 432.12935,340.37697   L 430.58786,338.65196   L 429.19319,336.81684   L 427.98202,334.79822   L 426.95437,332.70619   L 426.14692,330.50405   L 425.55969,328.19181   L 425.19267,325.80616   L 425.04586,323.3104   L 425.19267,320.85135   L 425.55969,318.4657   L 426.14692,316.15346   L 426.95437,313.95132   L 427.98202,311.82259   L 429.19319,309.84067   L 430.58786,308.00555   L 432.12935,306.28055   L 433.85434,304.70235   L 435.72614,303.30766   L 437.70805,302.09649   L 439.80007,301.10552   L 442.03889,300.26137   L 444.35111,299.67413   L 446.73674,299.30711   L 449.19578,299.19701   L 451.65481,299.30711   L 454.04044,299.67413   L 456.35267,300.26137   L 458.55479,301.10552   L 460.6835,302.09649   L 462.66541,303.30766   L 464.53721,304.70235   L 466.22551,306.28055   L 467.80369,308.00555   L 469.19837,309.84067   L 470.40953,311.82259   L 471.43719,313.95132   L 472.24463,316.15346   L 472.83187,318.4657   L 473.19889,320.85135   L 473.30899,323.3104   L 473.19889,325.80616   L 472.83187,328.19181   L 472.24463,330.50405   L 471.43719,332.70619   L 470.40953,334.79822   L 469.19837,336.81684   L 467.80369,338.65196   L 466.22551,340.37697   L 464.53721,341.91846   L 462.66541,343.31315   L 460.6835,344.52432   L 458.55479,345.55199   L 456.35267,346.35944   L 454.04044,346.98338   L 451.65481,347.3504   L 449.19578,347.46051  z    M 468.42763,327.16414   L 468.42763,319.49337   L 453.04949,319.49337   L 453.04949,304.07841   L 445.34207,304.07841   L 445.34207,319.49337   L 429.96393,319.49337   L 429.96393,327.16414   L 445.34207,327.16414   L 445.34207,342.5791   L 453.04949,342.5791   L 453.04949,327.16414   L 468.42763,327.16414  z   "
     style="fill:#1f1a17;fill-rule:evenodd;fill-opacity:1;stroke:none;" />
  <text
     id="text109"
     y="0.000000"
     x="104.230000"
     transform="matrix(1.000000,-0.000000,0.000000,1.000000,345.439224,397.192099)"
     style="font-size:28.000000px;font-style:normal;font-variant:normal;font-weight:700;font-stretch:Normal;line-height:89.527353%;letter-spacing:0px;word-spacing:0px;fill:#000000;fill-opacity:1;stroke:none;font-family:Arial;text-align:center;text-anchor:middle;"
     xml:space="preserve"><tspan
       id="tspan103"
       y="0.000000"
       x="104.230000"><tspan
         id="tspan101"
         style="fill:#1F1A17;font-size:28.000000px;font-style:normal;font-variant:normal;font-weight:700;font-stretch:Normal;font-family:Arial;"
         dy="0.000000"
         dx="0.000000">Muito resultado</tspan></tspan><tspan
       id="tspan107"
       y="25.067659"
       x="104.217380"><tspan
         id="tspan105"
         style="fill:#9B212E;font-size:28.000000px;font-style:normal;font-variant:normal;font-weight:700;font-stretch:Normal;font-family:Arial;"
         dy="0.000000"
         dx="0.000000">Pouco esforço</tspan></tspan></text>
  <text
     id="text115"
     y="-239.959522"
     x="-272.255436"
     transform="matrix(1.000000,-0.000000,0.000000,1.000000,345.439224,397.192099)"
     style="font-size:28.000000px;font-style:normal;font-variant:normal;font-weight:700;font-stretch:Normal;line-height:125.000000%;letter-spacing:0px;word-spacing:0px;fill:#000000;fill-opacity:1;stroke:none;font-family:Arial;text-align:start;text-anchor:start;"
     xml:space="preserve"><tspan
       id="tspan113"
       y="-239.959522"
       x="-272.255436"><tspan
         id="tspan111"
         style="fill:#1F1A17;font-size:28.000000px;font-style:normal;font-variant:normal;font-weight:700;font-stretch:Normal;font-family:Arial;"
         dy="0.000000"
         dx="0.000000">Pouco resultado</tspan></tspan></text>
  <text
     id="text121"
     y="-267.082508"
     x="-254.344860"
     transform="matrix(1.000000,-0.000000,0.000000,1.000000,345.439224,397.192099)"
     style="font-size:28.000000px;font-style:normal;font-variant:normal;font-weight:700;font-stretch:Normal;line-height:125.000000%;letter-spacing:0px;word-spacing:0px;fill:#000000;fill-opacity:1;stroke:none;font-family:Arial;text-align:start;text-anchor:start;"
     xml:space="preserve"><tspan
       id="tspan119"
       y="-267.082508"
       x="-254.344860"><tspan
         id="tspan117"
         style="fill:#781D26;font-size:28.000000px;font-style:normal;font-variant:normal;font-weight:700;font-stretch:Normal;font-family:Arial;"
         dy="0.000000"
         dx="0.000000">Muito esforço</tspan></tspan></text>
  <text
     id="text127"
     y="177.932665"
     x="-160.571250"
     transform="matrix(1.000000,-0.000000,0.000000,1.000000,345.439224,397.192099)"
     style="font-size:48.000000px;font-style:normal;font-variant:normal;font-weight:400;font-stretch:Normal;line-height:125.000000%;letter-spacing:0px;word-spacing:0px;fill:#000000;fill-opacity:1;stroke:none;font-family:Arial Black;text-align:start;text-anchor:start;"
     xml:space="preserve"><tspan
       id="tspan125"
       y="177.932665"
       x="-160.571250"><tspan
         id="tspan123"
         style="fill:#1F1A17;font-size:48.000000px;font-style:normal;font-variant:normal;font-weight:400;font-stretch:Normal;font-family:Arial Black;"
         dy="0.000000"
         dx="0.000000">Resultado</tspan></tspan></text>
  <text
     id="text145"
     y="0.000000"
     x="0.000000"
     transform="matrix(0.000000,-1.000000,1.000000,0.000000,34.940304,368.931342)"
     style="font-size:48.000000px;font-style:normal;font-variant:normal;font-weight:400;font-stretch:Normal;line-height:125.000000%;letter-spacing:0px;word-spacing:0px;fill:#000000;fill-opacity:1;stroke:none;font-family:Arial Black;text-align:start;text-anchor:start;"
     xml:space="preserve"><tspan
       id="tspan143"
       y="0.000000"
       x="0.000000"><tspan
         id="tspan129"
         style="fill:#DA251D;font-size:48.000000px;font-style:normal;font-variant:normal;font-weight:400;font-stretch:Normal;font-family:Arial Black;"
         dy="0.000000"
         dx="0.000000">E</tspan><tspan
         id="tspan131"
         style="fill:#DA251D;font-size:48.000000px;font-style:normal;font-variant:normal;font-weight:400;font-stretch:Normal;font-family:Arial Black;"
         dy="0.000000"
         dx="4.355532">s</tspan><tspan
         id="tspan133"
         style="fill:#DA251D;font-size:48.000000px;font-style:normal;font-variant:normal;font-weight:400;font-stretch:Normal;font-family:Arial Black;"
         dy="0.000000"
         dx="4.280609">f</tspan><tspan
         id="tspan135"
         style="fill:#DA251D;font-size:48.000000px;font-style:normal;font-variant:normal;font-weight:400;font-stretch:Normal;font-family:Arial Black;"
         dy="0.000000"
         dx="0.975574">o</tspan><tspan
         id="tspan137"
         style="fill:#DA251D;font-size:48.000000px;font-style:normal;font-variant:normal;font-weight:400;font-stretch:Normal;font-family:Arial Black;"
         dy="0.000000"
         dx="2.637203">r</tspan><tspan
         id="tspan139"
         style="fill:#DA251D;font-size:48.000000px;font-style:normal;font-variant:normal;font-weight:400;font-stretch:Normal;font-family:Arial Black;"
         dy="0.000000"
         dx="1.552949">ç</tspan><tspan
         id="tspan141"
         style="fill:#DA251D;font-size:48.000000px;font-style:normal;font-variant:normal;font-weight:400;font-stretch:Normal;font-family:Arial Black;"
         dy="0.000000"
         dx="5.613765">o</tspan></tspan></text>
  <text
     id="text151"
     y="0.000000"
     x="0.000000"
     transform="matrix(1.000000,-0.000000,0.000000,1.000000,345.475926,157.232577)"
     style="font-size:28.000000px;font-style:normal;font-variant:normal;font-weight:700;font-stretch:Normal;line-height:125.000000%;letter-spacing:0px;word-spacing:0px;fill:#000000;fill-opacity:1;stroke:none;font-family:Arial;text-align:start;text-anchor:start;"
     xml:space="preserve"><tspan
       id="tspan149"
       y="0.000000"
       x="0.000000"><tspan
         id="tspan147"
         style="fill:#1F1A17;font-size:28.000000px;font-style:normal;font-variant:normal;font-weight:700;font-stretch:Normal;font-family:Arial;"
         dy="0.000000"
         dx="0.000000">Muito resultado</tspan></tspan></text>
  <text
     id="text157"
     y="-27.122987"
     x="12.441978"
     transform="matrix(1.000000,-0.000000,0.000000,1.000000,345.475926,157.232577)"
     style="font-size:28.000000px;font-style:normal;font-variant:normal;font-weight:700;font-stretch:Normal;line-height:125.000000%;letter-spacing:0px;word-spacing:0px;fill:#000000;fill-opacity:1;stroke:none;font-family:Arial;text-align:start;text-anchor:start;"
     xml:space="preserve"><tspan
       id="tspan155"
       y="-27.122987"
       x="12.441978"><tspan
         id="tspan153"
         style="fill:#9B212E;font-size:28.000000px;font-style:normal;font-variant:normal;font-weight:700;font-stretch:Normal;font-family:Arial;"
         dy="0.000000"
         dx="0.000000">Muito esforço</tspan></tspan></text>
  <path
     id="path159"
     d="  M 201.56738,328.26521   L 201.56738,335.93599   L 163.10369,335.93599   L 163.10369,328.26521   L 201.56738,328.26521  z    M 182.33554,301.61936   L 183.91372,301.65606   L 185.45521,301.76616   L 186.95999,301.94968   L 188.46477,302.24329   L 189.93285,302.57362   L 191.40093,302.97734   L 192.79561,303.45447   L 194.19028,304.005   L 195.54826,304.62894   L 196.86953,305.28958   L 198.1541,306.02363   L 199.36526,306.83108   L 200.57643,307.67523   L 201.71419,308.59279   L 202.81525,309.54705   L 203.87961,310.53801   L 204.90727,311.60238   L 205.86152,312.74015   L 206.77907,313.87792   L 207.62321,315.05239   L 208.39396,316.30027   L 209.128,317.58485   L 209.82533,318.90613   L 210.41257,320.26412   L 210.9631,321.6221   L 211.44022,323.05349   L 211.88065,324.48488   L 212.21096,325.95297   L 212.46788,327.45776   L 212.68809,328.99926   L 212.7982,330.54075   L 212.8349,332.08225   L 212.7982,333.66045   L 212.68809,335.20194   L 212.46788,336.74344   L 212.21096,338.24823   L 211.88065,339.71632   L 211.44022,341.14771   L 210.9631,342.5791   L 210.41257,343.93709   L 209.82533,345.29507   L 209.128,346.61635   L 208.39396,347.90093   L 207.62321,349.11211   L 206.77907,350.32328   L 205.86152,351.46106   L 204.90727,352.59883   L 203.87961,353.62649   L 202.81525,354.65415   L 201.71419,355.60841   L 200.57643,356.52597   L 199.36526,357.37012   L 198.1541,358.17757   L 196.86953,358.91162   L 195.54826,359.57226   L 194.19028,360.1962   L 192.79561,360.74673   L 191.40093,361.22386   L 189.93285,361.62759   L 188.46477,361.95791   L 186.95999,362.25153   L 185.45521,362.43504   L 183.91372,362.54514   L 182.33554,362.58185   L 180.79405,362.54514   L 179.21587,362.43504   L 177.71108,362.25153   L 176.2063,361.95791   L 174.73822,361.62759   L 173.30684,361.22386   L 171.87547,360.74673   L 170.48079,360.1962   L 169.15952,359.57226   L 167.83825,358.91162   L 166.55368,358.17757   L 165.30581,357.37012   L 164.13134,356.52597   L 162.95688,355.60841   L 161.85582,354.65415   L 160.79146,353.62649   L 159.80051,352.59883   L 158.84626,351.46106   L 157.92871,350.32328   L 157.08456,349.11211   L 156.27712,347.90093   L 155.54308,346.61635   L 154.88244,345.29507   L 154.25851,343.93709   L 153.70798,342.5791   L 153.23085,341.14771   L 152.82713,339.71632   L 152.46011,338.24823   L 152.20319,336.74344   L 152.01968,335.20194   L 151.90958,333.66045   L 151.83617,332.08225   L 151.90958,330.54075   L 152.01968,328.99926   L 152.20319,327.45776   L 152.46011,325.95297   L 152.82713,324.48488   L 153.23085,323.05349   L 153.70798,321.6221   L 154.25851,320.26412   L 154.88244,318.90613   L 155.54308,317.58485   L 156.27712,316.30027   L 157.08456,315.05239   L 157.92871,313.87792   L 158.84626,312.74015   L 159.80051,311.60238   L 160.79146,310.53801   L 161.85582,309.54705   L 162.95688,308.59279   L 164.13134,307.67523   L 165.30581,306.83108   L 166.55368,306.02363   L 167.83825,305.28958   L 169.15952,304.62894   L 170.48079,304.005   L 171.87547,303.45447   L 173.30684,302.97734   L 174.73822,302.57362   L 176.2063,302.24329   L 177.71108,301.94968   L 179.21587,301.76616   L 180.79405,301.65606   L 182.33554,301.61936  z    M 182.33554,307.96885   L 179.8765,308.07896   L 177.49087,308.44598   L 175.17865,309.06992   L 172.97653,309.87737   L 170.84781,310.86833   L 168.8659,312.07951   L 166.9941,313.47419   L 165.30581,315.05239   L 163.72762,316.7774   L 162.33295,318.61251   L 161.12178,320.63114   L 160.09412,322.72317   L 159.28668,324.92531   L 158.69945,327.23755   L 158.33243,329.6232   L 158.22232,332.08225   L 158.33243,334.57801   L 158.69945,336.96365   L 159.28668,339.2759   L 160.09412,341.47803   L 161.12178,343.57006   L 162.33295,345.58869   L 163.72762,347.4238   L 165.30581,349.14881   L 166.9941,350.72701   L 168.8659,352.1217   L 170.84781,353.33287   L 172.97653,354.32383   L 175.17865,355.13128   L 177.49087,355.75522   L 179.8765,356.12225   L 182.33554,356.23235   L 184.79457,356.12225   L 187.1802,355.75522   L 189.49243,355.13128   L 191.73125,354.32383   L 193.82326,353.33287   L 195.80517,352.1217   L 197.67697,350.72701   L 199.40197,349.14881   L 200.94345,347.4238   L 202.33813,345.58869   L 203.54929,343.57006   L 204.57695,341.47803   L 205.38439,339.2759   L 205.97162,336.96365   L 206.33864,334.57801   L 206.48545,332.08225   L 206.33864,329.6232   L 205.97162,327.23755   L 205.38439,324.92531   L 204.57695,322.72317   L 203.54929,320.63114   L 202.33813,318.61251   L 200.94345,316.7774   L 199.40197,315.05239   L 197.67697,313.47419   L 195.80517,312.07951   L 193.82326,310.86833   L 191.73125,309.87737   L 189.49243,309.06992   L 187.1802,308.44598   L 184.79457,308.07896   L 182.33554,307.96885  z   "
     style="fill:#1f1a17;fill-rule:evenodd;fill-opacity:1;stroke:none;" />
  <path
     id="path161"
     d="  M 201.56738,486.37864   L 201.56738,494.08612   L 163.10369,494.08612   L 163.10369,486.37864   L 201.56738,486.37864  z    M 182.33554,459.73279   L 183.91372,459.76949   L 185.45521,459.9163   L 186.95999,460.09981   L 188.46477,460.35673   L 189.93285,460.68705   L 191.40093,461.12747   L 192.79561,461.6046   L 194.19028,462.15514   L 195.54826,462.74238   L 196.86953,463.43972   L 198.1541,464.17376   L 199.36526,464.94451   L 200.57643,465.82537   L 201.71419,466.70622   L 202.81525,467.66048   L 203.87961,468.68814   L 204.90727,469.75251   L 205.86152,470.85358   L 206.77907,471.99135   L 207.62321,473.20253   L 208.39396,474.4504   L 209.128,475.69828   L 209.82533,477.01956   L 210.41257,478.37755   L 210.9631,479.77223   L 211.44022,481.16692   L 211.88065,482.63501   L 212.21096,484.1031   L 212.46788,485.6079   L 212.68809,487.11269   L 212.7982,488.65419   L 212.8349,490.23238   L 212.7982,491.81058   L 212.68809,493.35208   L 212.46788,494.85687   L 212.21096,496.36167   L 211.88065,497.82976   L 211.44022,499.29785   L 210.9631,500.69253   L 210.41257,502.08722   L 209.82533,503.44521   L 209.128,504.76649   L 208.39396,506.01437   L 207.62321,507.26224   L 206.77907,508.47342   L 205.86152,509.61119   L 204.90727,510.71226   L 203.87961,511.77662   L 202.81525,512.76759   L 201.71419,513.75855   L 200.57643,514.6394   L 199.36526,515.52026   L 198.1541,516.291   L 196.86953,517.02505   L 195.54826,517.72239   L 194.19028,518.30963   L 192.79561,518.86016   L 191.40093,519.33729   L 189.93285,519.77772   L 188.46477,520.10804   L 186.95999,520.36496   L 185.45521,520.54847   L 183.91372,520.69528   L 182.33554,520.73198   L 180.79405,520.69528   L 179.21587,520.54847   L 177.71108,520.36496   L 176.2063,520.10804   L 174.73822,519.77772   L 173.30684,519.33729   L 171.87547,518.86016   L 170.48079,518.30963   L 169.15952,517.72239   L 167.83825,517.02505   L 166.55368,516.291   L 165.30581,515.52026   L 164.13134,514.6394   L 162.95688,513.75855   L 161.85582,512.76759   L 160.79146,511.77662   L 159.80051,510.71226   L 158.84626,509.61119   L 157.92871,508.47342   L 157.08456,507.26224   L 156.27712,506.01437   L 155.54308,504.76649   L 154.88244,503.44521   L 154.25851,502.08722   L 153.70798,500.69253   L 153.23085,499.29785   L 152.82713,497.82976   L 152.46011,496.36167   L 152.20319,494.85687   L 152.01968,493.35208   L 151.90958,491.81058   L 151.83617,490.23238   L 151.90958,488.65419   L 152.01968,487.11269   L 152.20319,485.6079   L 152.46011,484.1031   L 152.82713,482.63501   L 153.23085,481.16692   L 153.70798,479.77223   L 154.25851,478.37755   L 154.88244,477.01956   L 155.54308,475.69828   L 156.27712,474.4504   L 157.08456,473.20253   L 157.92871,471.99135   L 158.84626,470.85358   L 159.80051,469.75251   L 160.79146,468.68814   L 161.85582,467.66048   L 162.95688,466.70622   L 164.13134,465.82537   L 165.30581,464.94451   L 166.55368,464.17376   L 167.83825,463.43972   L 169.15952,462.74238   L 170.48079,462.15514   L 171.87547,461.6046   L 173.30684,461.12747   L 174.73822,460.68705   L 176.2063,460.35673   L 177.71108,460.09981   L 179.21587,459.9163   L 180.79405,459.76949   L 182.33554,459.73279  z    M 182.33554,466.08228   L 179.8765,466.22909   L 177.49087,466.59611   L 175.17865,467.18335   L 172.97653,467.9908   L 170.84781,469.01847   L 168.8659,470.22964   L 166.9941,471.62433   L 165.30581,473.16582   L 163.72762,474.89083   L 162.33295,476.76265   L 161.12178,478.74457   L 160.09412,480.8366   L 159.28668,483.07544   L 158.69945,485.38768   L 158.33243,487.77333   L 158.22232,490.23238   L 158.33243,492.69144   L 158.69945,495.07709   L 159.28668,497.38933   L 160.09412,499.59147   L 161.12178,501.7202   L 162.33295,503.70212   L 163.72762,505.57394   L 165.30581,507.29895   L 166.9941,508.84044   L 168.8659,510.23513   L 170.84781,511.4463   L 172.97653,512.47397   L 175.17865,513.28142   L 177.49087,513.86865   L 179.8765,514.23568   L 182.33554,514.38249   L 184.79457,514.23568   L 187.1802,513.86865   L 189.49243,513.28142   L 191.73125,512.47397   L 193.82326,511.4463   L 195.80517,510.23513   L 197.67697,508.84044   L 199.40197,507.29895   L 200.94345,505.57394   L 202.33813,503.70212   L 203.54929,501.7202   L 204.57695,499.59147   L 205.38439,497.38933   L 205.97162,495.07709   L 206.33864,492.69144   L 206.48545,490.23238   L 206.33864,487.77333   L 205.97162,485.38768   L 205.38439,483.07544   L 204.57695,480.8366   L 203.54929,478.74457   L 202.33813,476.76265   L 200.94345,474.89083   L 199.40197,473.16582   L 197.67697,471.62433   L 195.80517,470.22964   L 193.82326,469.01847   L 191.73125,467.9908   L 189.49243,467.18335   L 187.1802,466.59611   L 184.79457,466.22909   L 182.33554,466.08228  z   "
     style="fill:#9b212e;fill-rule:evenodd;fill-opacity:1;stroke:none;" />
  <path
     id="path163"
     d="  M 449.19578,189.7141   L 450.77396,189.7508   L 452.31545,189.86091   L 453.82023,190.08112   L 455.32501,190.33804   L 456.79309,190.66836   L 458.26117,191.07208   L 459.65585,191.58591   L 461.05052,192.09975   L 462.4085,192.72368   L 463.69307,193.42103   L 464.97764,194.15507   L 466.22551,194.92582   L 467.43667,195.76997   L 468.57443,196.68753   L 469.67549,197.64179   L 470.73985,198.66945   L 471.73081,199.73382   L 472.72176,200.83489   L 473.60261,201.97266   L 474.44675,203.18383   L 475.2542,204.43171   L 475.98824,205.67959   L 476.68558,207.00087   L 477.27281,208.35886   L 477.82334,209.75354   L 478.30046,211.14823   L 478.70419,212.61632   L 479.07121,214.08441   L 479.32812,215.58921   L 479.51163,217.094   L 479.65844,218.6355   L 479.69514,220.21369   L 479.65844,221.75519   L 479.51163,223.29669   L 479.32812,224.83818   L 479.07121,226.34297   L 478.70419,227.81107   L 478.30046,229.24246   L 477.82334,230.67384   L 477.27281,232.06853   L 476.68558,233.38981   L 475.98824,234.7111   L 475.2542,235.99568   L 474.44675,237.24355   L 473.60261,238.41803   L 472.72176,239.5925   L 471.73081,240.69357   L 470.73985,241.75793   L 469.67549,242.7489   L 468.57443,243.70315   L 467.43667,244.62071   L 466.22551,245.46486   L 464.97764,246.27231   L 463.69307,247.00636   L 462.4085,247.667   L 461.05052,248.29094   L 459.65585,248.84147   L 458.26117,249.3186   L 456.79309,249.72233   L 455.32501,250.08935   L 453.82023,250.34627   L 452.31545,250.52978   L 450.77396,250.63989   L 449.19578,250.67659   L 447.61759,250.63989   L 446.07611,250.52978   L 444.57133,250.34627   L 443.06654,250.08935   L 441.59846,249.72233   L 440.13038,249.3186   L 438.73571,248.84147   L 437.34103,248.29094   L 435.98306,247.667   L 434.66179,247.00636   L 433.41392,246.27231   L 432.16605,245.46486   L 430.95488,244.62071   L 429.81712,243.70315   L 428.71606,242.7489   L 427.6517,241.75793   L 426.62405,240.69357   L 425.6698,239.5925   L 424.78895,238.41803   L 423.9081,237.24355   L 423.13736,235.99568   L 422.40332,234.7111   L 421.70598,233.38981   L 421.11875,232.06853   L 420.56822,230.67384   L 420.09109,229.24246   L 419.65067,227.81107   L 419.32035,226.34297   L 419.06344,224.83818   L 418.84322,223.33339   L 418.73312,221.75519   L 418.69642,220.21369   L 418.73312,218.6355   L 418.84322,217.094   L 419.06344,215.58921   L 419.32035,214.08441   L 419.65067,212.61632   L 420.09109,211.14823   L 420.56822,209.75354   L 421.11875,208.35886   L 421.70598,207.00087   L 422.40332,205.67959   L 423.13736,204.43171   L 423.9081,203.18383   L 424.78895,201.97266   L 425.6698,200.83489   L 426.62405,199.73382   L 427.6517,198.66945   L 428.71606,197.64179   L 429.81712,196.68753   L 430.95488,195.76997   L 432.16605,194.92582   L 433.41392,194.15507   L 434.66179,193.42103   L 435.98306,192.72368   L 437.34103,192.09975   L 438.73571,191.58591   L 440.13038,191.07208   L 441.59846,190.66836   L 443.06654,190.33804   L 444.57133,190.08112   L 446.07611,189.86091   L 447.61759,189.7508   L 449.19578,189.7141  z    M 449.19578,196.06359   L 446.73674,196.2104   L 444.35111,196.57742   L 442.03889,197.16466   L 439.80007,197.97211   L 437.70805,198.99977   L 435.72614,200.21095   L 433.85434,201.60564   L 432.12935,203.14713   L 430.58786,204.87214   L 429.19319,206.74396   L 427.98202,208.72588   L 426.95437,210.81791   L 426.14692,213.05675   L 425.55969,215.36899   L 425.19267,217.75464   L 425.04586,220.21369   L 425.19267,222.67275   L 425.55969,225.0584   L 426.14692,227.37064   L 426.95437,229.57278   L 427.98202,231.70151   L 429.19319,233.68343   L 430.58786,235.55525   L 432.12935,237.24355   L 433.85434,238.82175   L 435.72614,240.21644   L 437.70805,241.42761   L 439.80007,242.45528   L 442.03889,243.26273   L 444.35111,243.84996   L 446.73674,244.21699   L 449.19578,244.32709   L 451.65481,244.21699   L 454.04044,243.84996   L 456.35267,243.26273   L 458.55479,242.45528   L 460.6835,241.42761   L 462.66541,240.21644   L 464.53721,238.82175   L 466.22551,237.24355   L 467.80369,235.55525   L 469.19837,233.68343   L 470.40953,231.70151   L 471.43719,229.57278   L 472.24463,227.37064   L 472.83187,225.0584   L 473.19889,222.67275   L 473.30899,220.21369   L 473.19889,217.75464   L 472.83187,215.36899   L 472.24463,213.05675   L 471.43719,210.81791   L 470.40953,208.72588   L 469.19837,206.74396   L 467.80369,204.87214   L 466.22551,203.14713   L 464.53721,201.60564   L 462.66541,200.21095   L 460.6835,198.99977   L 458.55479,197.97211   L 456.35267,197.16466   L 454.04044,196.57742   L 451.65481,196.2104   L 449.19578,196.06359  z    M 468.42763,216.35995   L 468.42763,224.06743   L 453.04949,224.06743   L 453.04949,239.44569   L 445.34207,239.44569   L 445.34207,224.06743   L 429.96393,224.06743   L 429.96393,216.35995   L 445.34207,216.35995   L 445.34207,200.9817   L 453.04949,200.9817   L 453.04949,216.35995   L 468.42763,216.35995  z   "
     style="fill:#1f1a17;fill-rule:evenodd;fill-opacity:1;stroke:none;" />
  <path
     id="path165"
     d="  M 449.19578,22.792117   L 450.77396,22.865522   L 452.31545,22.975629   L 453.82023,23.15914   L 455.32501,23.416056   L 456.79309,23.783079   L 458.26117,24.186804   L 459.65585,24.663934   L 461.05052,25.214468   L 462.4085,25.838407   L 463.69307,26.499048   L 464.97764,27.233093   L 466.22551,28.040544   L 467.43667,28.884696   L 468.57443,29.802253   L 469.67549,30.756513   L 470.73985,31.747474   L 471.73081,32.81184   L 472.72176,33.912909   L 473.60261,35.087382   L 474.44675,36.261855   L 475.2542,37.509733   L 475.98824,38.794312   L 476.68558,40.115595   L 477.27281,41.436877   L 477.82334,42.831563   L 478.30046,44.262952   L 478.70419,45.694341   L 479.07121,47.162433   L 479.32812,48.667226   L 479.51163,50.208722   L 479.65844,51.750218   L 479.69514,53.291714   L 479.65844,54.869912   L 479.51163,56.411408   L 479.32812,57.952904   L 479.07121,59.420995   L 478.70419,60.925789   L 478.30046,62.357178   L 477.82334,63.751864   L 477.27281,65.146551   L 476.68558,66.504536   L 475.98824,67.825818   L 475.2542,69.110398   L 474.44675,70.321573   L 473.60261,71.532748   L 472.72176,72.670519   L 471.73081,73.771587   L 470.73985,74.835954   L 469.67549,75.863617   L 468.57443,76.817877   L 467.43667,77.735434   L 466.22551,78.579586   L 464.97764,79.350334   L 463.69307,80.121082   L 462.4085,80.781723   L 461.05052,81.405662   L 459.65585,81.919494   L 458.26117,82.433326   L 456.79309,82.837051   L 455.32501,83.167372   L 453.82023,83.424288   L 452.31545,83.644501   L 450.77396,83.754608   L 449.19578,83.79131   L 447.61759,83.754608   L 446.07611,83.644501   L 444.57133,83.424288   L 443.06654,83.167372   L 441.59846,82.837051   L 440.13038,82.433326   L 438.73571,81.919494   L 437.34103,81.405662   L 435.98306,80.781723   L 434.66179,80.121082   L 433.41392,79.350334   L 432.16605,78.579586   L 430.95488,77.735434   L 429.81712,76.817877   L 428.71606,75.863617   L 427.6517,74.835954   L 426.62405,73.771587   L 425.6698,72.670519   L 424.78895,71.532748   L 423.9081,70.321573   L 423.13736,69.110398   L 422.40332,67.825818   L 421.70598,66.504536   L 421.11875,65.146551   L 420.56822,63.751864   L 420.09109,62.357178   L 419.65067,60.925789   L 419.32035,59.420995   L 419.06344,57.952904   L 418.84322,56.411408   L 418.73312,54.869912   L 418.69642,53.291714   L 418.73312,51.750218   L 418.84322,50.208722   L 419.06344,48.667226   L 419.32035,47.162433   L 419.65067,45.694341   L 420.09109,44.262952   L 420.56822,42.831563   L 421.11875,41.436877   L 421.70598,40.115595   L 422.40332,38.794312   L 423.13736,37.509733   L 423.9081,36.261855   L 424.78895,35.087382   L 425.6698,33.912909   L 426.62405,32.81184   L 427.6517,31.747474   L 428.71606,30.756513   L 429.81712,29.802253   L 430.95488,28.884696   L 432.16605,28.040544   L 433.41392,27.233093   L 434.66179,26.499048   L 435.98306,25.838407   L 437.34103,25.214468   L 438.73571,24.663934   L 440.13038,24.186804   L 441.59846,23.783079   L 443.06654,23.416056   L 444.57133,23.15914   L 446.07611,22.975629   L 447.61759,22.865522   L 449.19578,22.792117  z    M 449.19578,29.178314   L 446.73674,29.288421   L 444.35111,29.655444   L 442.03889,30.242681   L 439.80007,31.050131   L 437.70805,32.077795   L 435.72614,33.28897   L 433.85434,34.683657   L 432.12935,36.261855   L 430.58786,37.95016   L 429.19319,39.821976   L 427.98202,41.8039   L 426.95437,43.932632   L 426.14692,46.134769   L 425.55969,48.447013   L 425.19267,50.832661   L 425.04586,53.291714   L 425.19267,55.750767   L 425.55969,58.173117   L 426.14692,60.448659   L 426.95437,62.687498   L 427.98202,64.779528   L 429.19319,66.761451   L 430.58786,68.633268   L 432.12935,70.358275   L 433.85434,71.899771   L 435.72614,73.294458   L 437.70805,74.505633   L 439.80007,75.533297   L 442.03889,76.340747   L 444.35111,76.927984   L 446.73674,77.295007   L 449.19578,77.441816   L 451.65481,77.295007   L 454.04044,76.927984   L 456.35267,76.340747   L 458.55479,75.533297   L 460.6835,74.505633   L 462.66541,73.294458   L 464.53721,71.899771   L 466.22551,70.358275   L 467.80369,68.633268   L 469.19837,66.761451   L 470.40953,64.779528   L 471.43719,62.687498   L 472.24463,60.448659   L 472.83187,58.173117   L 473.19889,55.750767   L 473.30899,53.291714   L 473.19889,50.832661   L 472.83187,48.447013   L 472.24463,46.134769   L 471.43719,43.932632   L 470.40953,41.8039   L 469.19837,39.821976   L 467.80369,37.95016   L 466.22551,36.261855   L 464.53721,34.683657   L 462.66541,33.28897   L 460.6835,32.077795   L 458.55479,31.050131   L 456.35267,30.242681   L 454.04044,29.655444   L 451.65481,29.288421   L 449.19578,29.178314  z    M 468.42763,49.437974   L 468.42763,57.145454   L 453.04949,57.145454   L 453.04949,72.52371   L 445.34207,72.52371   L 445.34207,57.145454   L 429.96393,57.145454   L 429.96393,49.437974   L 445.34207,49.437974   L 445.34207,34.059718   L 453.04949,34.059718   L 453.04949,49.437974   L 468.42763,49.437974  z   "
     style="fill:#9b212e;fill-rule:evenodd;fill-opacity:1;stroke:none;" />
  <path
     id="path167"
     d="  M 201.56738,216.35995   L 201.56738,224.06743   L 163.10369,224.06743   L 163.10369,216.35995   L 201.56738,216.35995  z    M 182.33554,189.7141   L 183.91372,189.7508   L 185.45521,189.86091   L 186.95999,190.08112   L 188.46477,190.33804   L 189.93285,190.66836   L 191.40093,191.07208   L 192.79561,191.58591   L 194.19028,192.09975   L 195.54826,192.72368   L 196.86953,193.42103   L 198.1541,194.15507   L 199.36526,194.92582   L 200.57643,195.76997   L 201.71419,196.68753   L 202.81525,197.64179   L 203.87961,198.66945   L 204.90727,199.73382   L 205.86152,200.83489   L 206.77907,201.97266   L 207.62321,203.18383   L 208.39396,204.43171   L 209.128,205.67959   L 209.82533,207.00087   L 210.41257,208.35886   L 210.9631,209.75354   L 211.44022,211.14823   L 211.88065,212.61632   L 212.21096,214.08441   L 212.46788,215.58921   L 212.68809,217.094   L 212.7982,218.6355   L 212.8349,220.21369   L 212.7982,221.75519   L 212.68809,223.29669   L 212.46788,224.83818   L 212.21096,226.34297   L 211.88065,227.81107   L 211.44022,229.24246   L 210.9631,230.67384   L 210.41257,232.06853   L 209.82533,233.38981   L 209.128,234.7111   L 208.39396,235.99568   L 207.62321,237.24355   L 206.77907,238.41803   L 205.86152,239.5925   L 204.90727,240.69357   L 203.87961,241.75793   L 202.81525,242.7489   L 201.71419,243.70315   L 200.57643,244.62071   L 199.36526,245.46486   L 198.1541,246.27231   L 196.86953,247.00636   L 195.54826,247.667   L 194.19028,248.29094   L 192.79561,248.84147   L 191.40093,249.3186   L 189.93285,249.72233   L 188.46477,250.08935   L 186.95999,250.34627   L 185.45521,250.52978   L 183.91372,250.63989   L 182.33554,250.67659   L 180.79405,250.63989   L 179.21587,250.52978   L 177.71108,250.34627   L 176.2063,250.08935   L 174.73822,249.72233   L 173.30684,249.3186   L 171.87547,248.84147   L 170.48079,248.29094   L 169.15952,247.667   L 167.83825,247.00636   L 166.55368,246.27231   L 165.30581,245.46486   L 164.13134,244.62071   L 162.95688,243.70315   L 161.85582,242.7489   L 160.79146,241.75793   L 159.80051,240.69357   L 158.84626,239.5925   L 157.92871,238.41803   L 157.08456,237.24355   L 156.27712,235.99568   L 155.54308,234.7111   L 154.88244,233.38981   L 154.25851,232.06853   L 153.70798,230.67384   L 153.23085,229.24246   L 152.82713,227.81107   L 152.46011,226.34297   L 152.20319,224.83818   L 152.01968,223.33339   L 151.90958,221.75519   L 151.83617,220.21369   L 151.90958,218.6355   L 152.01968,217.094   L 152.20319,215.58921   L 152.46011,214.08441   L 152.82713,212.61632   L 153.23085,211.14823   L 153.70798,209.75354   L 154.25851,208.35886   L 154.88244,207.00087   L 155.54308,205.67959   L 156.27712,204.43171   L 157.08456,203.18383   L 157.92871,201.97266   L 158.84626,200.83489   L 159.80051,199.73382   L 160.79146,198.66945   L 161.85582,197.64179   L 162.95688,196.68753   L 164.13134,195.76997   L 165.30581,194.92582   L 166.55368,194.15507   L 167.83825,193.42103   L 169.15952,192.72368   L 170.48079,192.09975   L 171.87547,191.58591   L 173.30684,191.07208   L 174.73822,190.66836   L 176.2063,190.33804   L 177.71108,190.08112   L 179.21587,189.86091   L 180.79405,189.7508   L 182.33554,189.7141  z    M 182.33554,196.06359   L 179.8765,196.2104   L 177.49087,196.57742   L 175.17865,197.16466   L 172.97653,197.97211   L 170.84781,198.99977   L 168.8659,200.21095   L 166.9941,201.60564   L 165.30581,203.14713   L 163.72762,204.87214   L 162.33295,206.74396   L 161.12178,208.72588   L 160.09412,210.81791   L 159.28668,213.05675   L 158.69945,215.36899   L 158.33243,217.75464   L 158.22232,220.21369   L 158.33243,222.67275   L 158.69945,225.0584   L 159.28668,227.37064   L 160.09412,229.57278   L 161.12178,231.70151   L 162.33295,233.68343   L 163.72762,235.55525   L 165.30581,237.24355   L 166.9941,238.82175   L 168.8659,240.21644   L 170.84781,241.42761   L 172.97653,242.45528   L 175.17865,243.26273   L 177.49087,243.84996   L 179.8765,244.21699   L 182.33554,244.32709   L 184.79457,244.21699   L 187.1802,243.84996   L 189.49243,243.26273   L 191.73125,242.45528   L 193.82326,241.42761   L 195.80517,240.21644   L 197.67697,238.82175   L 199.40197,237.24355   L 200.94345,235.55525   L 202.33813,233.68343   L 203.54929,231.70151   L 204.57695,229.57278   L 205.38439,227.37064   L 205.97162,225.0584   L 206.33864,222.67275   L 206.48545,220.21369   L 206.33864,217.75464   L 205.97162,215.36899   L 205.38439,213.05675   L 204.57695,210.81791   L 203.54929,208.72588   L 202.33813,206.74396   L 200.94345,204.87214   L 199.40197,203.14713   L 197.67697,201.60564   L 195.80517,200.21095   L 193.82326,198.99977   L 191.73125,197.97211   L 189.49243,197.16466   L 187.1802,196.57742   L 184.79457,196.2104   L 182.33554,196.06359  z   "
     style="fill:#1f1a17;fill-rule:evenodd;fill-opacity:1;stroke:none;" />
  <path
     id="path169"
     d="  M 182.33554,22.792117   L 183.91372,22.865522   L 185.45521,22.975629   L 186.95999,23.15914   L 188.46477,23.416056   L 189.93285,23.783079   L 191.40093,24.186804   L 192.79561,24.663934   L 194.19028,25.214468   L 195.54826,25.838407   L 196.86953,26.499048   L 198.1541,27.233093   L 199.36526,28.040544   L 200.57643,28.884696   L 201.71419,29.802253   L 202.81525,30.756513   L 203.87961,31.747474   L 204.90727,32.81184   L 205.86152,33.912909   L 206.77907,35.087382   L 207.62321,36.261855   L 208.39396,37.509733   L 209.128,38.794312   L 209.82533,40.115595   L 210.41257,41.436877   L 210.9631,42.831563   L 211.44022,44.262952   L 211.88065,45.694341   L 212.21096,47.162433   L 212.46788,48.667226   L 212.68809,50.208722   L 212.7982,51.750218   L 212.8349,53.291714   L 212.7982,54.869912   L 212.68809,56.411408   L 212.46788,57.952904   L 212.21096,59.420995   L 211.88065,60.925789   L 211.44022,62.357178   L 210.9631,63.751864   L 210.41257,65.146551   L 209.82533,66.504536   L 209.128,67.825818   L 208.39396,69.110398   L 207.62321,70.321573   L 206.77907,71.532748   L 205.86152,72.670519   L 204.90727,73.771587   L 203.87961,74.835954   L 202.81525,75.863617   L 201.71419,76.817877   L 200.57643,77.735434   L 199.36526,78.579586   L 198.1541,79.350334   L 196.86953,80.121082   L 195.54826,80.781723   L 194.19028,81.405662   L 192.79561,81.919494   L 191.40093,82.433326   L 189.93285,82.837051   L 188.46477,83.167372   L 186.95999,83.424288   L 185.45521,83.644501   L 183.91372,83.754608   L 182.33554,83.79131   L 180.79405,83.754608   L 179.21587,83.644501   L 177.71108,83.424288   L 176.2063,83.167372   L 174.73822,82.837051   L 173.30684,82.433326   L 171.87547,81.919494   L 170.48079,81.405662   L 169.15952,80.781723   L 167.83825,80.121082   L 166.55368,79.350334   L 165.30581,78.579586   L 164.13134,77.735434   L 162.95688,76.817877   L 161.85582,75.863617   L 160.79146,74.835954   L 159.80051,73.771587   L 158.84626,72.670519   L 157.92871,71.532748   L 157.08456,70.321573   L 156.27712,69.110398   L 155.54308,67.825818   L 154.88244,66.504536   L 154.25851,65.146551   L 153.70798,63.751864   L 153.23085,62.357178   L 152.82713,60.925789   L 152.46011,59.420995   L 152.20319,57.952904   L 152.01968,56.411408   L 151.90958,54.869912   L 151.83617,53.291714   L 151.90958,51.750218   L 152.01968,50.208722   L 152.20319,48.667226   L 152.46011,47.162433   L 152.82713,45.694341   L 153.23085,44.262952   L 153.70798,42.831563   L 154.25851,41.436877   L 154.88244,40.115595   L 155.54308,38.794312   L 156.27712,37.509733   L 157.08456,36.261855   L 157.92871,35.087382   L 158.84626,33.912909   L 159.80051,32.81184   L 160.79146,31.747474   L 161.85582,30.756513   L 162.95688,29.802253   L 164.13134,28.884696   L 165.30581,28.040544   L 166.55368,27.233093   L 167.83825,26.499048   L 169.15952,25.838407   L 170.48079,25.214468   L 171.87547,24.663934   L 173.30684,24.186804   L 174.73822,23.783079   L 176.2063,23.416056   L 177.71108,23.15914   L 179.21587,22.975629   L 180.79405,22.865522   L 182.33554,22.792117  z    M 182.33554,29.178314   L 179.8765,29.288421   L 177.49087,29.655444   L 175.17865,30.242681   L 172.97653,31.050131   L 170.84781,32.077795   L 168.8659,33.28897   L 166.9941,34.683657   L 165.30581,36.261855   L 163.72762,37.95016   L 162.33295,39.821976   L 161.12178,41.8039   L 160.09412,43.932632   L 159.28668,46.134769   L 158.69945,48.447013   L 158.33243,50.832661   L 158.22232,53.291714   L 158.33243,55.750767   L 158.69945,58.173117   L 159.28668,60.448659   L 160.09412,62.687498   L 161.12178,64.779528   L 162.33295,66.761451   L 163.72762,68.633268   L 165.30581,70.358275   L 166.9941,71.899771   L 168.8659,73.294458   L 170.84781,74.505633   L 172.97653,75.533297   L 175.17865,76.340747   L 177.49087,76.927984   L 179.8765,77.295007   L 182.33554,77.441816   L 184.79457,77.295007   L 187.1802,76.927984   L 189.49243,76.340747   L 191.73125,75.533297   L 193.82326,74.505633   L 195.80517,73.294458   L 197.67697,71.899771   L 199.40197,70.358275   L 200.94345,68.633268   L 202.33813,66.761451   L 203.54929,64.779528   L 204.57695,62.687498   L 205.38439,60.448659   L 205.97162,58.173117   L 206.33864,55.750767   L 206.48545,53.291714   L 206.33864,50.832661   L 205.97162,48.447013   L 205.38439,46.134769   L 204.57695,43.932632   L 203.54929,41.8039   L 202.33813,39.821976   L 200.94345,37.95016   L 199.40197,36.261855   L 197.67697,34.683657   L 195.80517,33.28897   L 193.82326,32.077795   L 191.73125,31.050131   L 189.49243,30.242681   L 187.1802,29.655444   L 184.79457,29.288421   L 182.33554,29.178314  z    M 201.56738,49.437974   L 201.56738,57.145454   L 186.18925,57.145454   L 186.18925,72.52371   L 178.48183,72.52371   L 178.48183,57.145454   L 163.10369,57.145454   L 163.10369,49.437974   L 178.48183,49.437974   L 178.48183,34.059718   L 186.18925,34.059718   L 186.18925,49.437974   L 201.56738,49.437974  z   "
     style="fill:#9b212e;fill-rule:evenodd;fill-opacity:1;stroke:none;" />
</svg>
