<?xml version="1.0" encoding="UTF-8" standalone="no"?>
<svg
   xmlns:dc="http://purl.org/dc/elements/1.1/"
   xmlns:cc="http://creativecommons.org/ns#"
   xmlns:rdf="http://www.w3.org/1999/02/22-rdf-syntax-ns#"
   xmlns:svg="http://www.w3.org/2000/svg"
   xmlns="http://www.w3.org/2000/svg"
   id="svg505"
   height="197.7644mm"
   width="197.739mm"
   version="1.0">
  <metadata
     id="metadata509">
    <rdf:RDF>
      <cc:Work
         rdf:about="">
        <dc:format>image/svg+xml</dc:format>
        <dc:type
           rdf:resource="http://purl.org/dc/dcmitype/StillImage" />
      </cc:Work>
    </rdf:RDF>
  </metadata>
  <defs
     id="defs3">
    <pattern
       y="0"
       x="0"
       height="6"
       width="6"
       patternUnits="userSpaceOnUse"
       id="WMFhbasepattern" />
  </defs>
  <path
     id="path5"
     d="  M 373.632,0   L 392.87405,0.4671   L 411.83587,1.91511   L 430.51747,4.29732   L 448.91885,7.61373   L 466.9933,11.77092   L 484.74082,16.8156   L 502.068,22.70106   L 519.06826,29.38059   L 535.60147,36.85419   L 551.71435,45.12186   L 567.36019,54.09018   L 582.53899,63.80586   L 597.15734,74.2689   L 611.26195,85.33917   L 624.85282,97.11009   L 637.83653,109.44153   L 650.16638,122.42691   L 661.93579,136.01952   L 673.00464,150.12594   L 683.46634,164.74617   L 693.18077,179.92692   L 702.14794,195.57477   L 710.41454,211.68972   L 717.88718,228.22506   L 724.56586,245.2275   L 730.45056,262.55691   L 735.49459,280.30671   L 739.65125,298.38348   L 742.96723,316.78722   L 745.34914,335.47122   L 746.79696,354.43548   L 747.264,373.68   L 746.79696,392.92452   L 745.34914,411.88878   L 742.96723,430.57278   L 739.65125,448.97652   L 735.49459,467.05329   L 730.45056,484.80309   L 724.56586,502.1325   L 717.88718,519.13494   L 710.41454,535.67028   L 702.14794,551.78523   L 693.18077,567.43308   L 683.46634,582.61383   L 673.00464,597.23406   L 661.93579,611.34048   L 650.16638,624.93309   L 637.83653,637.91847   L 624.85282,650.24991   L 611.26195,662.02083   L 597.15734,673.0911   L 582.53899,683.55414   L 567.36019,693.26982   L 551.71435,702.23814   L 535.60147,710.50581   L 519.06826,717.97941   L 502.068,724.65894   L 484.74082,730.5444   L 466.9933,735.58908   L 448.91885,739.74627   L 430.51747,743.06268   L 411.83587,745.44489   L 392.87405,746.8929   L 373.632,747.36   L 354.38995,746.8929   L 335.42813,745.44489   L 316.74653,743.06268   L 298.34515,739.74627   L 280.2707,735.58908   L 262.52318,730.5444   L 245.196,724.65894   L 228.19574,717.97941   L 211.66253,710.50581   L 195.54965,702.23814   L 179.90381,693.26982   L 164.72501,683.55414   L 150.10666,673.0911   L 136.00205,662.02083   L 122.41118,650.24991   L 109.42747,637.91847   L 97.097616,624.93309   L 85.328208,611.34048   L 74.25936,597.23406   L 63.797664,582.61383   L 54.083232,567.43308   L 45.116064,551.78523   L 36.849456,535.67028   L 29.376816,519.13494   L 22.698144,502.1325   L 16.81344,484.80309   L 11.769408,467.05329   L 7.612752,448.97652   L 4.296768,430.57278   L 1.914864,411.88878   L 0.46704,392.92452   L 0,373.68   L 0.46704,354.43548   L 1.914864,335.47122   L 4.296768,316.78722   L 7.612752,298.38348   L 11.769408,280.30671   L 16.81344,262.55691   L 22.698144,245.2275   L 29.376816,228.22506   L 36.849456,211.68972   L 45.116064,195.57477   L 54.083232,179.92692   L 63.797664,164.74617   L 74.25936,150.12594   L 85.328208,136.01952   L 97.097616,122.42691   L 109.42747,109.44153   L 122.41118,97.11009   L 136.00205,85.33917   L 150.10666,74.2689   L 164.72501,63.80586   L 179.90381,54.09018   L 195.54965,45.12186   L 211.66253,36.85419   L 228.19574,29.38059   L 245.196,22.70106   L 262.52318,16.8156   L 280.2707,11.77092   L 298.34515,7.61373   L 316.74653,4.29732   L 335.42813,1.91511   L 354.38995,0.4671   L 373.632,0  z "
     style="fill:#75c5f0;fill-rule:evenodd;fill-opacity:1;stroke:none;" />
  <path
     id="path7"
     d="  M 373.632,63.75915   L 507.67248,296.00127   L 239.59152,296.00127   L 373.632,63.75915  z "
     style="fill:#f8c300;fill-rule:evenodd;fill-opacity:1;stroke:none;" />
  <path
     id="path9"
     d="  M 373.632,63.75915   L 507.67248,296.00127   L 239.59152,296.00127   L 373.632,63.75915  z "
     style="fill:none;stroke:#1f1a17;stroke-width:0.280224px;stroke-linecap:round;stroke-linejoin:round;stroke-miterlimit:4;stroke-dasharray:none;stroke-opacity:1;" />
  <path
     id="path11"
     d="  M 349.99978,148.49109   L 402.68189,148.49109   L 402.68189,163.485   L 397.91808,163.485   L 396.89059,163.485   L 395.95651,163.53171   L 395.16254,163.57842   L 394.41528,163.62513   L 393.76142,163.76526   L 393.20098,163.85868   L 392.73394,163.99881   L 392.3603,164.18565   L 392.03338,164.37249   L 391.70645,164.60604   L 391.42622,164.83959   L 391.1927,165.11985   L 390.91248,165.44682   L 390.72566,165.77379   L 390.53885,166.14747   L 390.35203,166.52115   L 390.16522,166.94154   L 390.0251,167.50206   L 389.9317,168.10929   L 389.83829,168.80994   L 389.74488,169.65072   L 389.69818,170.53821   L 389.69818,171.51912   L 389.69818,172.59345   L 389.69818,232.42896   L 389.69818,234.67104   L 389.79158,236.44602   L 389.88499,237.19338   L 389.9784,237.80061   L 390.11851,238.31442   L 390.21192,238.73481   L 390.35203,239.06178   L 390.53885,239.38875   L 390.72566,239.66901   L 390.95918,239.90256   L 391.1927,240.18282   L 391.47293,240.36966   L 391.75315,240.5565   L 392.08008,240.74334   L 392.50042,240.93018   L 393.01416,241.16373   L 393.5279,241.30386   L 394.08835,241.44399   L 394.74221,241.53741   L 395.44277,241.63083   L 396.14333,241.67754   L 396.9373,241.67754   L 402.68189,241.67754   L 402.68189,256.62474   L 349.99978,256.62474   L 349.99978,241.67754   L 354.24984,241.67754   L 355.32403,241.67754   L 356.35152,241.63083   L 357.2389,241.58412   L 358.03286,241.4907   L 358.73342,241.39728   L 359.34058,241.30386   L 359.85432,241.16373   L 360.22795,241.0236   L 360.55488,240.83676   L 360.88181,240.64992   L 361.16203,240.41637   L 361.44226,240.18282   L 361.67578,239.90256   L 361.9093,239.57559   L 362.09611,239.29533   L 362.28293,238.92165   L 362.42304,238.50126   L 362.56315,238.03416   L 362.65656,237.42693   L 362.74997,236.77299   L 362.84338,236.02563   L 362.89008,235.18485   L 362.93678,234.25065   L 362.93678,233.22303   L 362.93678,173.15397   L 362.93678,171.93951   L 362.89008,170.86518   L 362.84338,169.83756   L 362.74997,168.95007   L 362.65656,168.20271   L 362.56315,167.50206   L 362.42304,166.94154   L 362.28293,166.52115   L 362.09611,166.14747   L 361.9093,165.77379   L 361.67578,165.40011   L 361.39555,165.11985   L 361.11533,164.79288   L 360.7884,164.55933   L 360.46147,164.27907   L 360.08784,164.09223   L 359.76091,163.9521   L 359.34058,163.81197   L 358.82683,163.71855   L 358.21968,163.62513   L 356.72515,163.485   L 354.81029,163.485   L 349.99978,163.485   L 349.99978,148.49109  z "
     style="fill:#ffffff;fill-rule:nonzero;fill-opacity:1;stroke:none;" />
  <path
     id="path13"
     d="  M 349.99978,148.49109   L 402.68189,148.49109   L 402.68189,163.485   L 397.91808,163.485   L 396.89059,163.485   L 395.95651,163.53171   L 395.16254,163.57842   L 394.41528,163.62513   L 393.76142,163.76526   L 393.20098,163.85868   L 392.73394,163.99881   L 392.3603,164.18565   L 392.03338,164.37249   L 391.70645,164.60604   L 391.42622,164.83959   L 391.1927,165.11985   L 390.91248,165.44682   L 390.72566,165.77379   L 390.53885,166.14747   L 390.35203,166.52115   L 390.16522,166.94154   L 390.0251,167.50206   L 389.9317,168.10929   L 389.83829,168.80994   L 389.74488,169.65072   L 389.69818,170.53821   L 389.69818,171.51912   L 389.69818,172.59345   L 389.69818,232.42896   L 389.69818,234.67104   L 389.79158,236.44602   L 389.88499,237.19338   L 389.9784,237.80061   L 390.11851,238.31442   L 390.21192,238.73481   L 390.35203,239.06178   L 390.53885,239.38875   L 390.72566,239.66901   L 390.95918,239.90256   L 391.1927,240.18282   L 391.47293,240.36966   L 391.75315,240.5565   L 392.08008,240.74334   L 392.50042,240.93018   L 393.01416,241.16373   L 393.5279,241.30386   L 394.08835,241.44399   L 394.74221,241.53741   L 395.44277,241.63083   L 396.14333,241.67754   L 396.9373,241.67754   L 402.68189,241.67754   L 402.68189,256.62474   L 349.99978,256.62474   L 349.99978,241.67754   L 354.24984,241.67754   L 355.32403,241.67754   L 356.35152,241.63083   L 357.2389,241.58412   L 358.03286,241.4907   L 358.73342,241.39728   L 359.34058,241.30386   L 359.85432,241.16373   L 360.22795,241.0236   L 360.55488,240.83676   L 360.88181,240.64992   L 361.16203,240.41637   L 361.44226,240.18282   L 361.67578,239.90256   L 361.9093,239.57559   L 362.09611,239.29533   L 362.28293,238.92165   L 362.42304,238.50126   L 362.56315,238.03416   L 362.65656,237.42693   L 362.74997,236.77299   L 362.84338,236.02563   L 362.89008,235.18485   L 362.93678,234.25065   L 362.93678,233.22303   L 362.93678,173.15397   L 362.93678,171.93951   L 362.89008,170.86518   L 362.84338,169.83756   L 362.74997,168.95007   L 362.65656,168.20271   L 362.56315,167.50206   L 362.42304,166.94154   L 362.28293,166.52115   L 362.09611,166.14747   L 361.9093,165.77379   L 361.67578,165.40011   L 361.39555,165.11985   L 361.11533,164.79288   L 360.7884,164.55933   L 360.46147,164.27907   L 360.08784,164.09223   L 359.76091,163.9521   L 359.34058,163.81197   L 358.82683,163.71855   L 358.21968,163.62513   L 356.72515,163.485   L 354.81029,163.485   L 349.99978,163.485   L 349.99978,148.49109  "
     style="fill:none;stroke:#1f1a17;stroke-width:0.280224px;stroke-linecap:round;stroke-linejoin:round;stroke-miterlimit:4;stroke-dasharray:none;stroke-opacity:1;" />
  <path
     id="path15"
     d="  M 507.67248,296.00127   L 373.632,528.19668   L 239.59152,296.00127   L 507.67248,296.00127  z "
     style="fill:#e77817;fill-rule:evenodd;fill-opacity:1;stroke:none;" />
  <path
     id="path17"
     d="  M 507.67248,296.00127   L 373.632,528.19668   L 239.59152,296.00127   L 507.67248,296.00127  z "
     style="fill:none;stroke:#1f1a17;stroke-width:0.280224px;stroke-linecap:round;stroke-linejoin:round;stroke-miterlimit:4;stroke-dasharray:none;stroke-opacity:1;" />
  <path
     id="path19"
     d="  M 507.67248,296.00127   L 641.71296,528.19668   L 373.632,528.19668   L 507.67248,296.00127  z "
     style="fill:#f8c300;fill-rule:evenodd;fill-opacity:1;stroke:none;" />
  <path
     id="path21"
     d="  M 507.67248,296.00127   L 641.71296,528.19668   L 373.632,528.19668   L 507.67248,296.00127  z "
     style="fill:none;stroke:#1f1a17;stroke-width:0.280224px;stroke-linecap:round;stroke-linejoin:round;stroke-miterlimit:4;stroke-dasharray:none;stroke-opacity:1;" />
  <path
     id="path23"
     d="  M 373.632,528.19668   L 105.55104,528.19668   L 239.59152,296.00127   L 373.632,528.19668  z "
     style="fill:#f8c300;fill-rule:evenodd;fill-opacity:1;stroke:none;" />
  <path
     id="path25"
     d="  M 373.632,528.19668   L 105.55104,528.19668   L 239.59152,296.00127   L 373.632,528.19668  z "
     style="fill:none;stroke:#1f1a17;stroke-width:0.280224px;stroke-linecap:round;stroke-linejoin:round;stroke-miterlimit:4;stroke-dasharray:none;stroke-opacity:1;" />
  <text
     id="text59"
     y="0.000000"
     x="0.000000"
     transform="matrix(0.500000,-0.866025,0.866025,0.500000,148.145088,424.827450)"
     style="font-size:32.000000px;font-style:normal;font-variant:normal;font-weight:700;font-stretch:Normal;line-height:125.000000%;letter-spacing:0px;word-spacing:0px;fill:#000000;fill-opacity:1;stroke:none;font-family:Arial;text-align:start;text-anchor:start;"
     xml:space="preserve"><tspan
       id="tspan57"
       y="0.000000"
       x="0.000000"><tspan
         id="tspan27"
         style="fill:#FFFFFF;font-size:32.000000px;font-style:normal;font-variant:normal;font-weight:700;font-stretch:Normal;font-family:Arial;"
         dy="0.000000"
         dx="0.000000">A</tspan><tspan
         id="tspan29"
         style="fill:#FFFFFF;font-size:32.000000px;font-style:normal;font-variant:normal;font-weight:700;font-stretch:Normal;font-family:Arial;"
         dy="0.000000"
         dx="0.000000">D</tspan><tspan
         id="tspan31"
         style="fill:#FFFFFF;font-size:32.000000px;font-style:normal;font-variant:normal;font-weight:700;font-stretch:Normal;font-family:Arial;"
         dy="0.000000"
         dx="0.000000">M</tspan><tspan
         id="tspan33"
         style="fill:#FFFFFF;font-size:32.000000px;font-style:normal;font-variant:normal;font-weight:700;font-stretch:Normal;font-family:Arial;"
         dy="0.000000"
         dx="0.000000">I</tspan><tspan
         id="tspan35"
         style="fill:#FFFFFF;font-size:32.000000px;font-style:normal;font-variant:normal;font-weight:700;font-stretch:Normal;font-family:Arial;"
         dy="0.000000"
         dx="0.000000">N</tspan><tspan
         id="tspan37"
         style="fill:#FFFFFF;font-size:32.000000px;font-style:normal;font-variant:normal;font-weight:700;font-stretch:Normal;font-family:Arial;"
         dy="0.000000"
         dx="0.000000">I</tspan><tspan
         id="tspan39"
         style="fill:#FFFFFF;font-size:32.000000px;font-style:normal;font-variant:normal;font-weight:700;font-stretch:Normal;font-family:Arial;"
         dy="0.000000"
         dx="0.000000">S</tspan><tspan
         id="tspan41"
         style="fill:#FFFFFF;font-size:32.000000px;font-style:normal;font-variant:normal;font-weight:700;font-stretch:Normal;font-family:Arial;"
         dy="0.000000"
         dx="0.000000">T</tspan><tspan
         id="tspan43"
         style="fill:#FFFFFF;font-size:32.000000px;font-style:normal;font-variant:normal;font-weight:700;font-stretch:Normal;font-family:Arial;"
         dy="0.000000"
         dx="0.000000">R</tspan><tspan
         id="tspan45"
         style="fill:#FFFFFF;font-size:32.000000px;font-style:normal;font-variant:normal;font-weight:700;font-stretch:Normal;font-family:Arial;"
         dy="0.000000"
         dx="0.000000">A</tspan><tspan
         id="tspan47"
         style="fill:#FFFFFF;font-size:32.000000px;font-style:normal;font-variant:normal;font-weight:700;font-stretch:Normal;font-family:Arial;"
         dy="0.000000"
         dx="0.000000">D</tspan><tspan
         id="tspan49"
         style="fill:#FFFFFF;font-size:32.000000px;font-style:normal;font-variant:normal;font-weight:700;font-stretch:Normal;font-family:Arial;"
         dy="0.000000"
         dx="0.000000">O</tspan><tspan
         id="tspan51"
         style="fill:#FFFFFF;font-size:32.000000px;font-style:normal;font-variant:normal;font-weight:700;font-stretch:Normal;font-family:Arial;"
         dy="0.000000"
         dx="0.000000">R</tspan><tspan
         id="tspan53"
         style="fill:#FFFFFF;font-size:32.000000px;font-style:normal;font-variant:normal;font-weight:700;font-stretch:Normal;font-family:Arial;"
         dy="0.000000"
         dx="0.000000">E</tspan><tspan
         id="tspan55"
         style="fill:#FFFFFF;font-size:32.000000px;font-style:normal;font-variant:normal;font-weight:700;font-stretch:Normal;font-family:Arial;"
         dy="0.000000"
         dx="0.000000">S</tspan></tspan></text>
  <text
     id="text77"
     y="0.000000"
     x="0.000000"
     transform="matrix(0.500000,0.866025,-0.866025,0.500000,486.282048,229.813200)"
     style="font-size:32.000000px;font-style:normal;font-variant:normal;font-weight:700;font-stretch:Normal;line-height:125.000000%;letter-spacing:0px;word-spacing:0px;fill:#000000;fill-opacity:1;stroke:none;font-family:Arial;text-align:start;text-anchor:start;"
     xml:space="preserve"><tspan
       id="tspan75"
       y="0.000000"
       x="0.000000"><tspan
         id="tspan61"
         style="fill:#FFFFFF;font-size:32.000000px;font-style:normal;font-variant:normal;font-weight:700;font-stretch:Normal;font-family:Arial;"
         dy="0.000000"
         dx="0.000000">C</tspan><tspan
         id="tspan63"
         style="fill:#FFFFFF;font-size:32.000000px;font-style:normal;font-variant:normal;font-weight:700;font-stretch:Normal;font-family:Arial;"
         dy="0.000000"
         dx="0.000000">L</tspan><tspan
         id="tspan65"
         style="fill:#FFFFFF;font-size:32.000000px;font-style:normal;font-variant:normal;font-weight:700;font-stretch:Normal;font-family:Arial;"
         dy="0.000000"
         dx="0.000000">I</tspan><tspan
         id="tspan67"
         style="fill:#FFFFFF;font-size:32.000000px;font-style:normal;font-variant:normal;font-weight:700;font-stretch:Normal;font-family:Arial;"
         dy="0.000000"
         dx="0.000000">E</tspan><tspan
         id="tspan69"
         style="fill:#FFFFFF;font-size:32.000000px;font-style:normal;font-variant:normal;font-weight:700;font-stretch:Normal;font-family:Arial;"
         dy="0.000000"
         dx="0.000000">N</tspan><tspan
         id="tspan71"
         style="fill:#FFFFFF;font-size:32.000000px;font-style:normal;font-variant:normal;font-weight:700;font-stretch:Normal;font-family:Arial;"
         dy="0.000000"
         dx="0.000000">T</tspan><tspan
         id="tspan73"
         style="fill:#FFFFFF;font-size:32.000000px;font-style:normal;font-variant:normal;font-weight:700;font-stretch:Normal;font-family:Arial;"
         dy="0.000000"
         dx="0.000000">E</tspan></tspan></text>
  <text
     id="text83"
     y="0.000000"
     x="0.000000"
     transform="matrix(1.000000,-0.000000,0.000000,1.000000,253.976352,567.806760)"
     style="font-size:32.000000px;font-style:normal;font-variant:normal;font-weight:700;font-stretch:Normal;line-height:125.000000%;letter-spacing:0px;word-spacing:0px;fill:#000000;fill-opacity:1;stroke:none;font-family:Arial;text-align:start;text-anchor:start;"
     xml:space="preserve"><tspan
       id="tspan81"
       y="0.000000"
       x="0.000000"><tspan
         id="tspan79"
         style="fill:#FFFFFF;font-size:32.000000px;font-style:normal;font-variant:normal;font-weight:700;font-stretch:Normal;font-family:Arial;"
         dy="0.000000"
         dx="0.000000">FUNCIONÁRIOS</tspan></tspan></text>
  <text
     id="text89"
     y="-51.194160"
     x="-102.982320"
     transform="matrix(1.000000,-0.000000,0.000000,1.000000,253.976352,567.806760)"
     style="font-size:32.000000px;font-style:normal;font-variant:normal;font-weight:400;font-stretch:Normal;line-height:125.000000%;letter-spacing:0px;word-spacing:0px;fill:#000000;fill-opacity:1;stroke:none;font-family:Arial;text-align:start;text-anchor:start;"
     xml:space="preserve"><tspan
       id="tspan87"
       y="-51.194160"
       x="-102.982320"><tspan
         id="tspan85"
         style="fill:#1F1A17;font-size:32.000000px;font-style:normal;font-variant:normal;font-weight:400;font-stretch:Normal;font-family:Arial;"
         dy="0.000000"
         dx="0.000000">Treinamento</tspan></tspan></text>
  <text
     id="text95"
     y="-51.194160"
     x="164.491488"
     transform="matrix(1.000000,-0.000000,0.000000,1.000000,253.976352,567.806760)"
     style="font-size:32.000000px;font-style:normal;font-variant:normal;font-weight:400;font-stretch:Normal;line-height:125.000000%;letter-spacing:0px;word-spacing:0px;fill:#000000;fill-opacity:1;stroke:none;font-family:Arial;text-align:start;text-anchor:start;"
     xml:space="preserve"><tspan
       id="tspan93"
       y="-51.194160"
       x="164.491488"><tspan
         id="tspan91"
         style="fill:#1F1A17;font-size:32.000000px;font-style:normal;font-variant:normal;font-weight:400;font-stretch:Normal;font-family:Arial;"
         dy="0.000000"
         dx="0.000000">Atendimento</tspan></tspan></text>
  <text
     id="text101"
     y="-283.249440"
     x="62.489952"
     transform="matrix(1.000000,-0.000000,0.000000,1.000000,253.976352,567.806760)"
     style="font-size:32.000000px;font-style:normal;font-variant:normal;font-weight:400;font-stretch:Normal;line-height:125.000000%;letter-spacing:0px;word-spacing:0px;fill:#000000;fill-opacity:1;stroke:none;font-family:Arial;text-align:start;text-anchor:start;"
     xml:space="preserve"><tspan
       id="tspan99"
       y="-283.249440"
       x="62.489952"><tspan
         id="tspan97"
         style="fill:#1F1A17;font-size:32.000000px;font-style:normal;font-variant:normal;font-weight:400;font-stretch:Normal;font-family:Arial;"
         dy="0.000000"
         dx="0.000000">Imagem</tspan></tspan></text>
  <path
     id="path103"
     d="  M 197.69803,374.10039   L 207.92621,374.10039   L 209.0004,377.74377   L 269.99582,377.74377   L 271.35024,374.10039   L 281.62512,374.10039   L 295.02917,411.9822   L 280.59763,417.02688   L 279.47674,414.7848   L 278.40254,412.72956   L 277.37506,410.86116   L 276.48768,409.22631   L 275.69371,407.7783   L 274.94645,406.56384   L 274.29259,405.53622   L 273.73214,404.74215   L 272.70466,403.34085   L 271.58376,402.03297   L 270.46286,400.81851   L 269.29526,399.65076   L 268.12766,398.57643   L 266.86666,397.59552   L 265.60565,396.66132   L 264.25123,395.82054   L 263.27045,395.21331   L 262.24296,394.6995   L 261.26218,394.27911   L 260.28139,393.95214   L 259.2539,393.67188   L 258.27312,393.48504   L 257.29234,393.34491   L 256.31155,393.2982   L 255.84451,393.34491   L 255.42418,393.39162   L 255.05054,393.43833   L 254.72362,393.53175   L 254.39669,393.67188   L 254.16317,393.81201   L 253.92965,393.99885   L 253.74283,394.2324   L 253.55602,394.46595   L 253.4159,394.79292   L 253.3225,395.21331   L 253.22909,395.68041   L 253.13568,396.19422   L 253.08898,396.80145   L 253.04227,397.5021   L 253.04227,398.24946   L 253.04227,460.46718   L 253.08898,462.94281   L 253.13568,464.95134   L 253.18238,465.74541   L 253.22909,466.39935   L 253.3225,466.95987   L 253.4159,467.33355   L 253.64942,467.98749   L 253.92965,468.59472   L 254.11646,468.87498   L 254.30328,469.10853   L 254.5368,469.34208   L 254.72362,469.52892   L 255.00384,469.76247   L 255.23736,469.9026   L 255.51758,470.08944   L 255.84451,470.22957   L 256.54507,470.46312   L 257.29234,470.64996   L 257.80608,470.69667   L 258.45994,470.74338   L 259.30061,470.79009   L 260.28139,470.8368   L 261.44899,470.88351   L 262.80341,470.88351   L 264.29794,470.93022   L 265.97928,470.93022   L 265.97928,485.87742   L 213.29717,485.87742   L 213.29717,470.93022   L 216.47304,470.93022   L 217.73405,470.93022   L 218.85494,470.88351   L 219.88243,470.8368   L 220.76981,470.74338   L 221.56378,470.64996   L 222.21763,470.55654   L 222.77808,470.41641   L 223.19842,470.27628   L 223.57205,470.08944   L 223.89898,469.85589   L 224.2259,469.62234   L 224.50613,469.34208   L 224.78635,469.06182   L 225.01987,468.68814   L 225.25339,468.31446   L 225.44021,467.94078   L 225.62702,467.47368   L 225.76714,466.86645   L 225.90725,466.1658   L 226.04736,465.37173   L 226.09406,464.43753   L 226.18747,463.40991   L 226.18747,462.24216   L 226.23418,460.98099   L 226.23418,397.40868   L 226.23418,396.75474   L 226.18747,396.19422   L 226.14077,395.68041   L 226.04736,395.21331   L 225.95395,394.83963   L 225.86054,394.46595   L 225.72043,394.2324   L 225.58032,393.99885   L 225.3935,393.85872   L 225.20669,393.71859   L 224.92646,393.57846   L 224.64624,393.48504   L 224.27261,393.43833   L 223.89898,393.34491   L 223.43194,393.34491   L 222.9649,393.2982   L 221.93741,393.34491   L 220.90992,393.53175   L 219.78902,393.7653   L 218.71483,394.09227   L 217.54723,394.51266   L 216.37963,395.02647   L 215.21203,395.6337   L 213.99773,396.33435   L 212.73672,397.12842   L 211.56912,398.01591   L 210.40152,398.95011   L 209.28062,399.97773   L 208.20643,401.09877   L 207.13224,402.26652   L 206.10475,403.52769   L 205.12397,404.83557   L 204.70363,405.53622   L 204.14318,406.42371   L 203.48933,407.59146   L 202.69536,408.99276   L 201.85469,410.62761   L 200.8739,412.49601   L 199.75301,414.64467   L 198.5387,417.02688   L 184.38739,411.9822   L 197.69803,374.10039  z "
     style="fill:#ffffff;fill-rule:nonzero;fill-opacity:1;stroke:none;" />
  <path
     id="path105"
     d="  M 197.69803,374.10039   L 207.92621,374.10039   L 209.0004,377.74377   L 269.99582,377.74377   L 271.35024,374.10039   L 281.62512,374.10039   L 295.02917,411.9822   L 280.59763,417.02688   L 279.47674,414.7848   L 278.40254,412.72956   L 277.37506,410.86116   L 276.48768,409.22631   L 275.69371,407.7783   L 274.94645,406.56384   L 274.29259,405.53622   L 273.73214,404.74215   L 272.70466,403.34085   L 271.58376,402.03297   L 270.46286,400.81851   L 269.29526,399.65076   L 268.12766,398.57643   L 266.86666,397.59552   L 265.60565,396.66132   L 264.25123,395.82054   L 263.27045,395.21331   L 262.24296,394.6995   L 261.26218,394.27911   L 260.28139,393.95214   L 259.2539,393.67188   L 258.27312,393.48504   L 257.29234,393.34491   L 256.31155,393.2982   L 255.84451,393.34491   L 255.42418,393.39162   L 255.05054,393.43833   L 254.72362,393.53175   L 254.39669,393.67188   L 254.16317,393.81201   L 253.92965,393.99885   L 253.74283,394.2324   L 253.55602,394.46595   L 253.4159,394.79292   L 253.3225,395.21331   L 253.22909,395.68041   L 253.13568,396.19422   L 253.08898,396.80145   L 253.04227,397.5021   L 253.04227,398.24946   L 253.04227,460.46718   L 253.08898,462.94281   L 253.13568,464.95134   L 253.18238,465.74541   L 253.22909,466.39935   L 253.3225,466.95987   L 253.4159,467.33355   L 253.64942,467.98749   L 253.92965,468.59472   L 254.11646,468.87498   L 254.30328,469.10853   L 254.5368,469.34208   L 254.72362,469.52892   L 255.00384,469.76247   L 255.23736,469.9026   L 255.51758,470.08944   L 255.84451,470.22957   L 256.54507,470.46312   L 257.29234,470.64996   L 257.80608,470.69667   L 258.45994,470.74338   L 259.30061,470.79009   L 260.28139,470.8368   L 261.44899,470.88351   L 262.80341,470.88351   L 264.29794,470.93022   L 265.97928,470.93022   L 265.97928,485.87742   L 213.29717,485.87742   L 213.29717,470.93022   L 216.47304,470.93022   L 217.73405,470.93022   L 218.85494,470.88351   L 219.88243,470.8368   L 220.76981,470.74338   L 221.56378,470.64996   L 222.21763,470.55654   L 222.77808,470.41641   L 223.19842,470.27628   L 223.57205,470.08944   L 223.89898,469.85589   L 224.2259,469.62234   L 224.50613,469.34208   L 224.78635,469.06182   L 225.01987,468.68814   L 225.25339,468.31446   L 225.44021,467.94078   L 225.62702,467.47368   L 225.76714,466.86645   L 225.90725,466.1658   L 226.04736,465.37173   L 226.09406,464.43753   L 226.18747,463.40991   L 226.18747,462.24216   L 226.23418,460.98099   L 226.23418,397.40868   L 226.23418,396.75474   L 226.18747,396.19422   L 226.14077,395.68041   L 226.04736,395.21331   L 225.95395,394.83963   L 225.86054,394.46595   L 225.72043,394.2324   L 225.58032,393.99885   L 225.3935,393.85872   L 225.20669,393.71859   L 224.92646,393.57846   L 224.64624,393.48504   L 224.27261,393.43833   L 223.89898,393.34491   L 223.43194,393.34491   L 222.9649,393.2982   L 221.93741,393.34491   L 220.90992,393.53175   L 219.78902,393.7653   L 218.71483,394.09227   L 217.54723,394.51266   L 216.37963,395.02647   L 215.21203,395.6337   L 213.99773,396.33435   L 212.73672,397.12842   L 211.56912,398.01591   L 210.40152,398.95011   L 209.28062,399.97773   L 208.20643,401.09877   L 207.13224,402.26652   L 206.10475,403.52769   L 205.12397,404.83557   L 204.70363,405.53622   L 204.14318,406.42371   L 203.48933,407.59146   L 202.69536,408.99276   L 201.85469,410.62761   L 200.8739,412.49601   L 199.75301,414.64467   L 198.5387,417.02688   L 184.38739,411.9822   L 197.69803,374.10039  "
     style="fill:none;stroke:#1f1a17;stroke-width:0.280224px;stroke-linecap:round;stroke-linejoin:round;stroke-miterlimit:4;stroke-dasharray:none;stroke-opacity:1;" />
  <path
     id="path107"
     d="  M 495.80966,377.74377   L 520.09574,377.74377   L 552.55502,461.21454   L 553.20888,462.80268   L 553.86274,464.25069   L 554.46989,465.51186   L 555.07704,466.58619   L 555.63749,467.5671   L 556.19794,468.36117   L 556.47816,468.68814   L 556.71168,468.9684   L 556.9919,469.24866   L 557.27213,469.4355   L 557.50565,469.62234   L 557.83258,469.80918   L 558.1595,469.94931   L 558.48643,470.13615   L 559.2804,470.3697   L 560.16778,470.60325   L 561.14856,470.74338   L 562.26946,470.8368   L 563.48376,470.93022   L 564.79147,470.93022   L 564.79147,485.87742   L 513.65059,485.87742   L 513.65059,470.93022   L 516.73306,470.8368   L 517.76054,470.8368   L 518.74133,470.79009   L 519.582,470.69667   L 520.37597,470.55654   L 521.07653,470.3697   L 521.73038,470.18286   L 522.24413,469.94931   L 522.71117,469.71576   L 523.1315,469.4355   L 523.45843,469.10853   L 523.78536,468.78156   L 524.01888,468.45459   L 524.2057,468.12762   L 524.34581,467.75394   L 524.39251,467.33355   L 524.43922,466.95987   L 524.39251,466.53948   L 524.34581,466.07238   L 524.2057,465.51186   L 524.06558,464.81121   L 523.59854,463.22307   L 522.94469,461.21454   L 519.76882,451.35873   L 486.8425,451.35873   L 482.82595,462.28887   L 482.2655,463.87701   L 481.89187,465.18489   L 481.75176,465.74541   L 481.65835,466.1658   L 481.61165,466.58619   L 481.56494,466.86645   L 481.56494,467.19342   L 481.61165,467.47368   L 481.70506,467.75394   L 481.79846,468.08091   L 481.93858,468.36117   L 482.07869,468.59472   L 482.2655,468.87498   L 482.45232,469.10853   L 482.68584,469.38879   L 482.96606,469.62234   L 483.29299,469.80918   L 483.61992,469.99602   L 484.04026,470.18286   L 484.41389,470.32299   L 484.88093,470.46312   L 485.39467,470.60325   L 485.7683,470.69667   L 486.32875,470.74338   L 487.02931,470.79009   L 487.86998,470.8368   L 488.85077,470.88351   L 489.97166,470.88351   L 491.23267,470.93022   L 492.63379,470.93022   L 492.63379,485.87742   L 450.78701,485.87742   L 450.78701,470.93022   L 451.76779,470.93022   L 452.65517,470.88351   L 453.49584,470.8368   L 454.28981,470.74338   L 454.99037,470.64996   L 455.64422,470.50983   L 456.20467,470.3697   L 456.71842,470.22957   L 457.13875,470.04273   L 457.55909,469.80918   L 457.97942,469.57563   L 458.39976,469.34208   L 458.77339,469.06182   L 459.10032,468.78156   L 459.42725,468.45459   L 459.75418,468.12762   L 460.0344,467.75394   L 460.36133,467.28684   L 460.68826,466.72632   L 461.01518,466.11909   L 461.71574,464.67108   L 462.4163,462.94281   L 495.80966,377.74377  z    M 492.49368,435.94443   L 514.11763,435.94443   L 503.56253,406.19016   L 492.49368,435.94443  z   "
     style="fill:#ffffff;fill-rule:nonzero;fill-opacity:1;stroke:none;" />
  <path
     id="path109"
     d="  M 495.80966,377.74377   L 520.09574,377.74377   L 552.55502,461.21454   L 553.20888,462.80268   L 553.86274,464.25069   L 554.46989,465.51186   L 555.07704,466.58619   L 555.63749,467.5671   L 556.19794,468.36117   L 556.47816,468.68814   L 556.71168,468.9684   L 556.9919,469.24866   L 557.27213,469.4355   L 557.50565,469.62234   L 557.83258,469.80918   L 558.1595,469.94931   L 558.48643,470.13615   L 559.2804,470.3697   L 560.16778,470.60325   L 561.14856,470.74338   L 562.26946,470.8368   L 563.48376,470.93022   L 564.79147,470.93022   L 564.79147,485.87742   L 513.65059,485.87742   L 513.65059,470.93022   L 516.73306,470.8368   L 517.76054,470.8368   L 518.74133,470.79009   L 519.582,470.69667   L 520.37597,470.55654   L 521.07653,470.3697   L 521.73038,470.18286   L 522.24413,469.94931   L 522.71117,469.71576   L 523.1315,469.4355   L 523.45843,469.10853   L 523.78536,468.78156   L 524.01888,468.45459   L 524.2057,468.12762   L 524.34581,467.75394   L 524.39251,467.33355   L 524.43922,466.95987   L 524.39251,466.53948   L 524.34581,466.07238   L 524.2057,465.51186   L 524.06558,464.81121   L 523.59854,463.22307   L 522.94469,461.21454   L 519.76882,451.35873   L 486.8425,451.35873   L 482.82595,462.28887   L 482.2655,463.87701   L 481.89187,465.18489   L 481.75176,465.74541   L 481.65835,466.1658   L 481.61165,466.58619   L 481.56494,466.86645   L 481.56494,467.19342   L 481.61165,467.47368   L 481.70506,467.75394   L 481.79846,468.08091   L 481.93858,468.36117   L 482.07869,468.59472   L 482.2655,468.87498   L 482.45232,469.10853   L 482.68584,469.38879   L 482.96606,469.62234   L 483.29299,469.80918   L 483.61992,469.99602   L 484.04026,470.18286   L 484.41389,470.32299   L 484.88093,470.46312   L 485.39467,470.60325   L 485.7683,470.69667   L 486.32875,470.74338   L 487.02931,470.79009   L 487.86998,470.8368   L 488.85077,470.88351   L 489.97166,470.88351   L 491.23267,470.93022   L 492.63379,470.93022   L 492.63379,485.87742   L 450.78701,485.87742   L 450.78701,470.93022   L 451.76779,470.93022   L 452.65517,470.88351   L 453.49584,470.8368   L 454.28981,470.74338   L 454.99037,470.64996   L 455.64422,470.50983   L 456.20467,470.3697   L 456.71842,470.22957   L 457.13875,470.04273   L 457.55909,469.80918   L 457.97942,469.57563   L 458.39976,469.34208   L 458.77339,469.06182   L 459.10032,468.78156   L 459.42725,468.45459   L 459.75418,468.12762   L 460.0344,467.75394   L 460.36133,467.28684   L 460.68826,466.72632   L 461.01518,466.11909   L 461.71574,464.67108   L 462.4163,462.94281   L 495.80966,377.74377  "
     style="fill:none;stroke:#1f1a17;stroke-width:0.280224px;stroke-linecap:round;stroke-linejoin:round;stroke-miterlimit:4;stroke-dasharray:none;stroke-opacity:1;" />
  <path
     id="path111"
     d="  M 492.49368,435.94443   L 514.11763,435.94443   L 503.56253,406.19016   L 492.49368,435.94443  "
     style="fill:none;stroke:#1f1a17;stroke-width:0.280224px;stroke-linecap:round;stroke-linejoin:round;stroke-miterlimit:4;stroke-dasharray:none;stroke-opacity:1;" />
  <text
     id="text117"
     y="0.000000"
     x="0.000000"
     transform="matrix(-0.970296,-0.241922,0.241922,-0.970296,322.397712,688.598820)"
     style="font-size:48.000000px;font-style:normal;font-variant:normal;font-weight:400;font-stretch:Normal;line-height:125.000000%;letter-spacing:0px;word-spacing:0px;fill:#000000;fill-opacity:1;stroke:none;font-family:Arial;text-align:start;text-anchor:start;"
     xml:space="preserve"><tspan
       id="tspan115"
       y="0.000000"
       x="0.000000"><tspan
         id="tspan113"
         style="fill:#1F1A17;font-size:48.000000px;font-style:normal;font-variant:normal;font-weight:400;font-stretch:Normal;font-family:Arial;"
         dy="0.000000"
         dx="0.000000">Q</tspan></tspan></text>
  <text
     id="text123"
     y="0.000000"
     x="0.000000"
     transform="matrix(-0.945519,-0.325568,0.325568,-0.945519,285.828480,679.957470)"
     style="font-size:48.000000px;font-style:normal;font-variant:normal;font-weight:400;font-stretch:Normal;line-height:125.000000%;letter-spacing:0px;word-spacing:0px;fill:#000000;fill-opacity:1;stroke:none;font-family:Arial;text-align:start;text-anchor:start;"
     xml:space="preserve"><tspan
       id="tspan121"
       y="0.000000"
       x="0.000000"><tspan
         id="tspan119"
         style="fill:#1F1A17;font-size:48.000000px;font-style:normal;font-variant:normal;font-weight:400;font-stretch:Normal;font-family:Arial;"
         dy="0.000000"
         dx="0.000000">u</tspan></tspan></text>
  <text
     id="text129"
     y="0.000000"
     x="0.000000"
     transform="matrix(-0.906308,-0.422618,0.422618,-0.906308,260.701728,671.783220)"
     style="font-size:48.000000px;font-style:normal;font-variant:normal;font-weight:400;font-stretch:Normal;line-height:125.000000%;letter-spacing:0px;word-spacing:0px;fill:#000000;fill-opacity:1;stroke:none;font-family:Arial;text-align:start;text-anchor:start;"
     xml:space="preserve"><tspan
       id="tspan127"
       y="0.000000"
       x="0.000000"><tspan
         id="tspan125"
         style="fill:#1F1A17;font-size:48.000000px;font-style:normal;font-variant:normal;font-weight:400;font-stretch:Normal;font-family:Arial;"
         dy="0.000000"
         dx="0.000000">a</tspan></tspan></text>
  <text
     id="text135"
     y="0.000000"
     x="0.000000"
     transform="matrix(-0.882948,-0.469472,0.469472,-0.882948,236.042016,660.759660)"
     style="font-size:48.000000px;font-style:normal;font-variant:normal;font-weight:400;font-stretch:Normal;line-height:125.000000%;letter-spacing:0px;word-spacing:0px;fill:#000000;fill-opacity:1;stroke:none;font-family:Arial;text-align:start;text-anchor:start;"
     xml:space="preserve"><tspan
       id="tspan133"
       y="0.000000"
       x="0.000000"><tspan
         id="tspan131"
         style="fill:#1F1A17;font-size:48.000000px;font-style:normal;font-variant:normal;font-weight:400;font-stretch:Normal;font-family:Arial;"
         dy="0.000000"
         dx="0.000000">l</tspan></tspan></text>
  <text
     id="text141"
     y="0.000000"
     x="0.000000"
     transform="matrix(-0.866025,-0.500000,0.500000,-0.866025,226.561104,655.948530)"
     style="font-size:48.000000px;font-style:normal;font-variant:normal;font-weight:400;font-stretch:Normal;line-height:125.000000%;letter-spacing:0px;word-spacing:0px;fill:#000000;fill-opacity:1;stroke:none;font-family:Arial;text-align:start;text-anchor:start;"
     xml:space="preserve"><tspan
       id="tspan139"
       y="0.000000"
       x="0.000000"><tspan
         id="tspan137"
         style="fill:#1F1A17;font-size:48.000000px;font-style:normal;font-variant:normal;font-weight:400;font-stretch:Normal;font-family:Arial;"
         dy="0.000000"
         dx="0.000000">i</tspan></tspan></text>
  <text
     id="text147"
     y="0.000000"
     x="0.000000"
     transform="matrix(-0.838671,-0.544639,0.544639,-0.838671,217.033488,651.137400)"
     style="font-size:48.000000px;font-style:normal;font-variant:normal;font-weight:400;font-stretch:Normal;line-height:125.000000%;letter-spacing:0px;word-spacing:0px;fill:#000000;fill-opacity:1;stroke:none;font-family:Arial;text-align:start;text-anchor:start;"
     xml:space="preserve"><tspan
       id="tspan145"
       y="0.000000"
       x="0.000000"><tspan
         id="tspan143"
         style="fill:#1F1A17;font-size:48.000000px;font-style:normal;font-variant:normal;font-weight:400;font-stretch:Normal;font-family:Arial;"
         dy="0.000000"
         dx="0.000000">d</tspan></tspan></text>
  <text
     id="text153"
     y="0.000000"
     x="0.000000"
     transform="matrix(-0.809017,-0.587785,0.587785,-0.809017,194.802384,636.750720)"
     style="font-size:48.000000px;font-style:normal;font-variant:normal;font-weight:400;font-stretch:Normal;line-height:125.000000%;letter-spacing:0px;word-spacing:0px;fill:#000000;fill-opacity:1;stroke:none;font-family:Arial;text-align:start;text-anchor:start;"
     xml:space="preserve"><tspan
       id="tspan151"
       y="0.000000"
       x="0.000000"><tspan
         id="tspan149"
         style="fill:#1F1A17;font-size:48.000000px;font-style:normal;font-variant:normal;font-weight:400;font-stretch:Normal;font-family:Arial;"
         dy="0.000000"
         dx="0.000000">a</tspan></tspan></text>
  <text
     id="text159"
     y="0.000000"
     x="0.000000"
     transform="matrix(-0.754710,-0.656059,0.656059,-0.754710,173.505360,620.402220)"
     style="font-size:48.000000px;font-style:normal;font-variant:normal;font-weight:400;font-stretch:Normal;line-height:125.000000%;letter-spacing:0px;word-spacing:0px;fill:#000000;fill-opacity:1;stroke:none;font-family:Arial;text-align:start;text-anchor:start;"
     xml:space="preserve"><tspan
       id="tspan157"
       y="0.000000"
       x="0.000000"><tspan
         id="tspan155"
         style="fill:#1F1A17;font-size:48.000000px;font-style:normal;font-variant:normal;font-weight:400;font-stretch:Normal;font-family:Arial;"
         dy="0.000000"
         dx="0.000000">d</tspan></tspan></text>
  <text
     id="text165"
     y="0.000000"
     x="0.000000"
     transform="matrix(-0.681998,-0.731354,0.731354,-0.681998,153.142416,603.166230)"
     style="font-size:48.000000px;font-style:normal;font-variant:normal;font-weight:400;font-stretch:Normal;line-height:125.000000%;letter-spacing:0px;word-spacing:0px;fill:#000000;fill-opacity:1;stroke:none;font-family:Arial;text-align:start;text-anchor:start;"
     xml:space="preserve"><tspan
       id="tspan163"
       y="0.000000"
       x="0.000000"><tspan
         id="tspan161"
         style="fill:#1F1A17;font-size:48.000000px;font-style:normal;font-variant:normal;font-weight:400;font-stretch:Normal;font-family:Arial;"
         dy="0.000000"
         dx="0.000000">e</tspan></tspan></text>
  <text
     id="text171"
     y="0.000000"
     x="0.000000"
     transform="matrix(-0.642788,-0.766044,0.766044,-0.642788,134.741040,583.454610)"
     style="font-size:48.000000px;font-style:normal;font-variant:normal;font-weight:400;font-stretch:Normal;line-height:125.000000%;letter-spacing:0px;word-spacing:0px;fill:#000000;fill-opacity:1;stroke:none;font-family:Arial;text-align:start;text-anchor:start;"
     xml:space="preserve"><tspan
       id="tspan169"
       y="0.000000"
       x="0.000000"><tspan
         id="tspan167"
         style="fill:#1F1A17;font-size:48.000000px;font-style:normal;font-variant:normal;font-weight:400;font-stretch:Normal;font-family:Arial;"
         dy="0.000000"
         dx="0.000000" /></tspan></text>
  <text
     id="text177"
     y="0.000000"
     x="0.000000"
     transform="matrix(-0.309017,-0.951057,0.951057,-0.309017,78.836352,494.191800)"
     style="font-size:48.000000px;font-style:normal;font-variant:normal;font-weight:400;font-stretch:Normal;line-height:125.000000%;letter-spacing:0px;word-spacing:0px;fill:#000000;fill-opacity:1;stroke:none;font-family:Arial;text-align:start;text-anchor:start;"
     xml:space="preserve"><tspan
       id="tspan175"
       y="0.000000"
       x="0.000000"><tspan
         id="tspan173"
         style="fill:#1F1A17;font-size:48.000000px;font-style:normal;font-variant:normal;font-weight:400;font-stretch:Normal;font-family:Arial;"
         dy="0.000000"
         dx="0.000000">T</tspan></tspan></text>
  <text
     id="text183"
     y="0.000000"
     x="0.000000"
     transform="matrix(-0.258819,-0.965926,0.965926,-0.258819,70.663152,471.630870)"
     style="font-size:48.000000px;font-style:normal;font-variant:normal;font-weight:400;font-stretch:Normal;line-height:125.000000%;letter-spacing:0px;word-spacing:0px;fill:#000000;fill-opacity:1;stroke:none;font-family:Arial;text-align:start;text-anchor:start;"
     xml:space="preserve"><tspan
       id="tspan181"
       y="0.000000"
       x="0.000000"><tspan
         id="tspan179"
         style="fill:#1F1A17;font-size:48.000000px;font-style:normal;font-variant:normal;font-weight:400;font-stretch:Normal;font-family:Arial;"
         dy="0.000000"
         dx="0.000000">e</tspan></tspan></text>
  <text
     id="text189"
     y="0.000000"
     x="0.000000"
     transform="matrix(-0.173648,-0.984808,0.984808,-0.173648,63.750960,445.706820)"
     style="font-size:48.000000px;font-style:normal;font-variant:normal;font-weight:400;font-stretch:Normal;line-height:125.000000%;letter-spacing:0px;word-spacing:0px;fill:#000000;fill-opacity:1;stroke:none;font-family:Arial;text-align:start;text-anchor:start;"
     xml:space="preserve"><tspan
       id="tspan187"
       y="0.000000"
       x="0.000000"><tspan
         id="tspan185"
         style="fill:#1F1A17;font-size:48.000000px;font-style:normal;font-variant:normal;font-weight:400;font-stretch:Normal;font-family:Arial;"
         dy="0.000000"
         dx="0.000000">c</tspan></tspan></text>
  <text
     id="text195"
     y="0.000000"
     x="0.000000"
     transform="matrix(-0.121869,-0.992546,0.992546,-0.121869,59.454192,422.211690)"
     style="font-size:48.000000px;font-style:normal;font-variant:normal;font-weight:400;font-stretch:Normal;line-height:125.000000%;letter-spacing:0px;word-spacing:0px;fill:#000000;fill-opacity:1;stroke:none;font-family:Arial;text-align:start;text-anchor:start;"
     xml:space="preserve"><tspan
       id="tspan193"
       y="0.000000"
       x="0.000000"><tspan
         id="tspan191"
         style="fill:#1F1A17;font-size:48.000000px;font-style:normal;font-variant:normal;font-weight:400;font-stretch:Normal;font-family:Arial;"
         dy="0.000000"
         dx="0.000000">n</tspan></tspan></text>
  <text
     id="text201"
     y="0.000000"
     x="0.000000"
     transform="matrix(-0.017452,-0.999848,0.999848,-0.017452,56.371728,395.820540)"
     style="font-size:48.000000px;font-style:normal;font-variant:normal;font-weight:400;font-stretch:Normal;line-height:125.000000%;letter-spacing:0px;word-spacing:0px;fill:#000000;fill-opacity:1;stroke:none;font-family:Arial;text-align:start;text-anchor:start;"
     xml:space="preserve"><tspan
       id="tspan199"
       y="0.000000"
       x="0.000000"><tspan
         id="tspan197"
         style="fill:#1F1A17;font-size:48.000000px;font-style:normal;font-variant:normal;font-weight:400;font-stretch:Normal;font-family:Arial;"
         dy="0.000000"
         dx="0.000000">o</tspan></tspan></text>
  <text
     id="text207"
     y="0.000000"
     x="0.000000"
     transform="matrix(0.034899,-0.999391,0.999391,0.034899,55.717872,368.915580)"
     style="font-size:48.000000px;font-style:normal;font-variant:normal;font-weight:400;font-stretch:Normal;line-height:125.000000%;letter-spacing:0px;word-spacing:0px;fill:#000000;fill-opacity:1;stroke:none;font-family:Arial;text-align:start;text-anchor:start;"
     xml:space="preserve"><tspan
       id="tspan205"
       y="0.000000"
       x="0.000000"><tspan
         id="tspan203"
         style="fill:#1F1A17;font-size:48.000000px;font-style:normal;font-variant:normal;font-weight:400;font-stretch:Normal;font-family:Arial;"
         dy="0.000000"
         dx="0.000000">l</tspan></tspan></text>
  <text
     id="text213"
     y="0.000000"
     x="0.000000"
     transform="matrix(0.087156,-0.996195,0.996195,0.087156,55.811280,358.359120)"
     style="font-size:48.000000px;font-style:normal;font-variant:normal;font-weight:400;font-stretch:Normal;line-height:125.000000%;letter-spacing:0px;word-spacing:0px;fill:#000000;fill-opacity:1;stroke:none;font-family:Arial;text-align:start;text-anchor:start;"
     xml:space="preserve"><tspan
       id="tspan211"
       y="0.000000"
       x="0.000000"><tspan
         id="tspan209"
         style="fill:#1F1A17;font-size:48.000000px;font-style:normal;font-variant:normal;font-weight:400;font-stretch:Normal;font-family:Arial;"
         dy="0.000000"
         dx="0.000000">o</tspan></tspan></text>
  <text
     id="text219"
     y="0.000000"
     x="0.000000"
     transform="matrix(0.190809,-0.981627,0.981627,0.190809,58.006368,331.967970)"
     style="font-size:48.000000px;font-style:normal;font-variant:normal;font-weight:400;font-stretch:Normal;line-height:125.000000%;letter-spacing:0px;word-spacing:0px;fill:#000000;fill-opacity:1;stroke:none;font-family:Arial;text-align:start;text-anchor:start;"
     xml:space="preserve"><tspan
       id="tspan217"
       y="0.000000"
       x="0.000000"><tspan
         id="tspan215"
         style="fill:#1F1A17;font-size:48.000000px;font-style:normal;font-variant:normal;font-weight:400;font-stretch:Normal;font-family:Arial;"
         dy="0.000000"
         dx="0.000000">g</tspan></tspan></text>
  <text
     id="text225"
     y="0.000000"
     x="0.000000"
     transform="matrix(0.241922,-0.970296,0.970296,0.241922,63.143808,305.576820)"
     style="font-size:48.000000px;font-style:normal;font-variant:normal;font-weight:400;font-stretch:Normal;line-height:125.000000%;letter-spacing:0px;word-spacing:0px;fill:#000000;fill-opacity:1;stroke:none;font-family:Arial;text-align:start;text-anchor:start;"
     xml:space="preserve"><tspan
       id="tspan223"
       y="0.000000"
       x="0.000000"><tspan
         id="tspan221"
         style="fill:#1F1A17;font-size:48.000000px;font-style:normal;font-variant:normal;font-weight:400;font-stretch:Normal;font-family:Arial;"
         dy="0.000000"
         dx="0.000000">i</tspan></tspan></text>
  <text
     id="text231"
     y="0.000000"
     x="0.000000"
     transform="matrix(0.275637,-0.961262,0.961262,0.275637,65.619120,295.020360)"
     style="font-size:48.000000px;font-style:normal;font-variant:normal;font-weight:400;font-stretch:Normal;line-height:125.000000%;letter-spacing:0px;word-spacing:0px;fill:#000000;fill-opacity:1;stroke:none;font-family:Arial;text-align:start;text-anchor:start;"
     xml:space="preserve"><tspan
       id="tspan229"
       y="0.000000"
       x="0.000000"><tspan
         id="tspan227"
         style="fill:#1F1A17;font-size:48.000000px;font-style:normal;font-variant:normal;font-weight:400;font-stretch:Normal;font-family:Arial;"
         dy="0.000000"
         dx="0.000000">a</tspan></tspan></text>
  <text
     id="text237"
     y="0.000000"
     x="0.000000"
     transform="matrix(0.374607,-0.927184,0.927184,0.374607,73.138464,269.563410)"
     style="font-size:48.000000px;font-style:normal;font-variant:normal;font-weight:400;font-stretch:Normal;line-height:125.000000%;letter-spacing:0px;word-spacing:0px;fill:#000000;fill-opacity:1;stroke:none;font-family:Arial;text-align:start;text-anchor:start;"
     xml:space="preserve"><tspan
       id="tspan235"
       y="0.000000"
       x="0.000000"><tspan
         id="tspan233"
         style="fill:#1F1A17;font-size:48.000000px;font-style:normal;font-variant:normal;font-weight:400;font-stretch:Normal;font-family:Arial;"
         dy="0.000000"
         dx="0.000000" /></tspan></text>
  <text
     id="text243"
     y="0.000000"
     x="0.000000"
     transform="matrix(0.656059,-0.754710,0.754710,0.656059,124.139232,176.470380)"
     style="font-size:48.000000px;font-style:normal;font-variant:normal;font-weight:400;font-stretch:Normal;line-height:125.000000%;letter-spacing:0px;word-spacing:0px;fill:#000000;fill-opacity:1;stroke:none;font-family:Arial;text-align:start;text-anchor:start;"
     xml:space="preserve"><tspan
       id="tspan241"
       y="0.000000"
       x="0.000000"><tspan
         id="tspan239"
         style="fill:#1F1A17;font-size:48.000000px;font-style:normal;font-variant:normal;font-weight:400;font-stretch:Normal;font-family:Arial;"
         dy="0.000000"
         dx="0.000000">F</tspan></tspan></text>
  <text
     id="text249"
     y="0.000000"
     x="0.000000"
     transform="matrix(0.694658,-0.719340,0.719340,0.694658,143.334576,154.376550)"
     style="font-size:48.000000px;font-style:normal;font-variant:normal;font-weight:400;font-stretch:Normal;line-height:125.000000%;letter-spacing:0px;word-spacing:0px;fill:#000000;fill-opacity:1;stroke:none;font-family:Arial;text-align:start;text-anchor:start;"
     xml:space="preserve"><tspan
       id="tspan247"
       y="0.000000"
       x="0.000000"><tspan
         id="tspan245"
         style="fill:#1F1A17;font-size:48.000000px;font-style:normal;font-variant:normal;font-weight:400;font-stretch:Normal;font-family:Arial;"
         dy="0.000000"
         dx="0.000000">i</tspan></tspan></text>
  <text
     id="text255"
     y="0.000000"
     x="0.000000"
     transform="matrix(0.766044,-0.642788,0.642788,0.766044,150.667104,146.249010)"
     style="font-size:48.000000px;font-style:normal;font-variant:normal;font-weight:400;font-stretch:Normal;line-height:125.000000%;letter-spacing:0px;word-spacing:0px;fill:#000000;fill-opacity:1;stroke:none;font-family:Arial;text-align:start;text-anchor:start;"
     xml:space="preserve"><tspan
       id="tspan253"
       y="0.000000"
       x="0.000000"><tspan
         id="tspan251"
         style="fill:#1F1A17;font-size:48.000000px;font-style:normal;font-variant:normal;font-weight:400;font-stretch:Normal;font-family:Arial;"
         dy="0.000000"
         dx="0.000000">n</tspan></tspan></text>
  <text
     id="text261"
     y="0.000000"
     x="0.000000"
     transform="matrix(0.788011,-0.615661,0.615661,0.788011,170.609712,128.966310)"
     style="font-size:48.000000px;font-style:normal;font-variant:normal;font-weight:400;font-stretch:Normal;line-height:125.000000%;letter-spacing:0px;word-spacing:0px;fill:#000000;fill-opacity:1;stroke:none;font-family:Arial;text-align:start;text-anchor:start;"
     xml:space="preserve"><tspan
       id="tspan259"
       y="0.000000"
       x="0.000000"><tspan
         id="tspan257"
         style="fill:#1F1A17;font-size:48.000000px;font-style:normal;font-variant:normal;font-weight:400;font-stretch:Normal;font-family:Arial;"
         dy="0.000000"
         dx="0.000000">a</tspan></tspan></text>
  <text
     id="text267"
     y="0.000000"
     x="0.000000"
     transform="matrix(0.848048,-0.529919,0.529919,0.848048,192.046848,112.664520)"
     style="font-size:48.000000px;font-style:normal;font-variant:normal;font-weight:400;font-stretch:Normal;line-height:125.000000%;letter-spacing:0px;word-spacing:0px;fill:#000000;fill-opacity:1;stroke:none;font-family:Arial;text-align:start;text-anchor:start;"
     xml:space="preserve"><tspan
       id="tspan265"
       y="0.000000"
       x="0.000000"><tspan
         id="tspan263"
         style="fill:#1F1A17;font-size:48.000000px;font-style:normal;font-variant:normal;font-weight:400;font-stretch:Normal;font-family:Arial;"
         dy="0.000000"
         dx="0.000000">n</tspan></tspan></text>
  <text
     id="text273"
     y="0.000000"
     x="0.000000"
     transform="matrix(0.891007,-0.453990,0.453990,0.891007,214.418064,98.231130)"
     style="font-size:48.000000px;font-style:normal;font-variant:normal;font-weight:400;font-stretch:Normal;line-height:125.000000%;letter-spacing:0px;word-spacing:0px;fill:#000000;fill-opacity:1;stroke:none;font-family:Arial;text-align:start;text-anchor:start;"
     xml:space="preserve"><tspan
       id="tspan271"
       y="0.000000"
       x="0.000000"><tspan
         id="tspan269"
         style="fill:#1F1A17;font-size:48.000000px;font-style:normal;font-variant:normal;font-weight:400;font-stretch:Normal;font-family:Arial;"
         dy="0.000000"
         dx="0.000000">c</tspan></tspan></text>
  <text
     id="text279"
     y="0.000000"
     x="0.000000"
     transform="matrix(0.913545,-0.406737,0.406737,0.913545,235.528272,87.207570)"
     style="font-size:48.000000px;font-style:normal;font-variant:normal;font-weight:400;font-stretch:Normal;line-height:125.000000%;letter-spacing:0px;word-spacing:0px;fill:#000000;fill-opacity:1;stroke:none;font-family:Arial;text-align:start;text-anchor:start;"
     xml:space="preserve"><tspan
       id="tspan277"
       y="0.000000"
       x="0.000000"><tspan
         id="tspan275"
         style="fill:#1F1A17;font-size:48.000000px;font-style:normal;font-variant:normal;font-weight:400;font-stretch:Normal;font-family:Arial;"
         dy="0.000000"
         dx="0.000000">e</tspan></tspan></text>
  <text
     id="text287"
     y="0.000000"
     x="0.000000"
     transform="matrix(0.951057,-0.309017,0.309017,0.951057,260.281392,76.651110)"
     style="font-size:48.000000px;font-style:normal;font-variant:normal;font-weight:400;font-stretch:Normal;line-height:125.000000%;letter-spacing:0px;word-spacing:0px;fill:#000000;fill-opacity:1;stroke:none;font-family:Arial;text-align:start;text-anchor:start;"
     xml:space="preserve"><tspan
       id="tspan285"
       y="0.000000"
       x="0.000000"><tspan
         id="tspan281"
         style="fill:#1F1A17;font-size:48.000000px;font-style:normal;font-variant:normal;font-weight:400;font-stretch:Normal;font-family:Arial;"
         dy="0.000000"
         dx="0.000000">i</tspan><tspan
         id="tspan283"
         style="fill:#1F1A17;font-size:48.000000px;font-style:normal;font-variant:normal;font-weight:400;font-stretch:Normal;font-family:Arial;"
         dy="-0.496508"
         dx="0.000000">r</tspan></tspan></text>
  <text
     id="text293"
     y="0.000000"
     x="0.000000"
     transform="matrix(0.974370,-0.224951,0.224951,0.974370,285.501552,68.009760)"
     style="font-size:48.000000px;font-style:normal;font-variant:normal;font-weight:400;font-stretch:Normal;line-height:125.000000%;letter-spacing:0px;word-spacing:0px;fill:#000000;fill-opacity:1;stroke:none;font-family:Arial;text-align:start;text-anchor:start;"
     xml:space="preserve"><tspan
       id="tspan291"
       y="0.000000"
       x="0.000000"><tspan
         id="tspan289"
         style="fill:#1F1A17;font-size:48.000000px;font-style:normal;font-variant:normal;font-weight:400;font-stretch:Normal;font-family:Arial;"
         dy="0.000000"
         dx="0.000000">a</tspan></tspan></text>
  <text
     id="text299"
     y="0.000000"
     x="0.000000"
     transform="matrix(0.984808,-0.173648,0.173648,0.984808,311.235456,61.750620)"
     style="font-size:48.000000px;font-style:normal;font-variant:normal;font-weight:400;font-stretch:Normal;line-height:125.000000%;letter-spacing:0px;word-spacing:0px;fill:#000000;fill-opacity:1;stroke:none;font-family:Arial;text-align:start;text-anchor:start;"
     xml:space="preserve"><tspan
       id="tspan297"
       y="0.000000"
       x="0.000000"><tspan
         id="tspan295"
         style="fill:#1F1A17;font-size:48.000000px;font-style:normal;font-variant:normal;font-weight:400;font-stretch:Normal;font-family:Arial;"
         dy="0.000000"
         dx="0.000000" /></tspan></text>
  <text
     id="text305"
     y="0.000000"
     x="0.000000"
     transform="matrix(0.984808,0.173648,-0.173648,0.984808,417.393648,58.901310)"
     style="font-size:48.000000px;font-style:normal;font-variant:normal;font-weight:400;font-stretch:Normal;line-height:125.000000%;letter-spacing:0px;word-spacing:0px;fill:#000000;fill-opacity:1;stroke:none;font-family:Arial;text-align:start;text-anchor:start;"
     xml:space="preserve"><tspan
       id="tspan303"
       y="0.000000"
       x="0.000000"><tspan
         id="tspan301"
         style="fill:#1F1A17;font-size:48.000000px;font-style:normal;font-variant:normal;font-weight:400;font-stretch:Normal;font-family:Arial;"
         dy="0.000000"
         dx="0.000000">I</tspan></tspan></text>
  <text
     id="text311"
     y="0.000000"
     x="0.000000"
     transform="matrix(0.974370,0.224951,-0.224951,0.974370,430.750992,60.816420)"
     style="font-size:48.000000px;font-style:normal;font-variant:normal;font-weight:400;font-stretch:Normal;line-height:125.000000%;letter-spacing:0px;word-spacing:0px;fill:#000000;fill-opacity:1;stroke:none;font-family:Arial;text-align:start;text-anchor:start;"
     xml:space="preserve"><tspan
       id="tspan309"
       y="0.000000"
       x="0.000000"><tspan
         id="tspan307"
         style="fill:#1F1A17;font-size:48.000000px;font-style:normal;font-variant:normal;font-weight:400;font-stretch:Normal;font-family:Arial;"
         dy="0.000000"
         dx="0.000000">n</tspan></tspan></text>
  <text
     id="text317"
     y="0.000000"
     x="0.000000"
     transform="matrix(0.965926,0.258819,-0.258819,0.965926,456.951936,67.028850)"
     style="font-size:48.000000px;font-style:normal;font-variant:normal;font-weight:400;font-stretch:Normal;line-height:125.000000%;letter-spacing:0px;word-spacing:0px;fill:#000000;fill-opacity:1;stroke:none;font-family:Arial;text-align:start;text-anchor:start;"
     xml:space="preserve"><tspan
       id="tspan315"
       y="0.000000"
       x="0.000000"><tspan
         id="tspan313"
         style="fill:#1F1A17;font-size:48.000000px;font-style:normal;font-variant:normal;font-weight:400;font-stretch:Normal;font-family:Arial;"
         dy="0.000000"
         dx="0.000000">f</tspan></tspan></text>
  <text
     id="text323"
     y="0.000000"
     x="0.000000"
     transform="matrix(0.951057,0.309017,-0.309017,0.951057,469.328496,70.905780)"
     style="font-size:48.000000px;font-style:normal;font-variant:normal;font-weight:400;font-stretch:Normal;line-height:125.000000%;letter-spacing:0px;word-spacing:0px;fill:#000000;fill-opacity:1;stroke:none;font-family:Arial;text-align:start;text-anchor:start;"
     xml:space="preserve"><tspan
       id="tspan321"
       y="0.000000"
       x="0.000000"><tspan
         id="tspan319"
         style="fill:#1F1A17;font-size:48.000000px;font-style:normal;font-variant:normal;font-weight:400;font-stretch:Normal;font-family:Arial;"
         dy="0.000000"
         dx="0.000000">o</tspan></tspan></text>
  <text
     id="text329"
     y="0.000000"
     x="0.000000"
     transform="matrix(0.913545,0.406737,-0.406737,0.913545,494.548656,79.547130)"
     style="font-size:48.000000px;font-style:normal;font-variant:normal;font-weight:400;font-stretch:Normal;line-height:125.000000%;letter-spacing:0px;word-spacing:0px;fill:#000000;fill-opacity:1;stroke:none;font-family:Arial;text-align:start;text-anchor:start;"
     xml:space="preserve"><tspan
       id="tspan327"
       y="0.000000"
       x="0.000000"><tspan
         id="tspan325"
         style="fill:#1F1A17;font-size:48.000000px;font-style:normal;font-variant:normal;font-weight:400;font-stretch:Normal;font-family:Arial;"
         dy="0.000000"
         dx="0.000000">r</tspan></tspan></text>
  <text
     id="text335"
     y="0.000000"
     x="0.000000"
     transform="matrix(0.874620,0.484810,-0.484810,0.874620,509.587344,85.759560)"
     style="font-size:48.000000px;font-style:normal;font-variant:normal;font-weight:400;font-stretch:Normal;line-height:125.000000%;letter-spacing:0px;word-spacing:0px;fill:#000000;fill-opacity:1;stroke:none;font-family:Arial;text-align:start;text-anchor:start;"
     xml:space="preserve"><tspan
       id="tspan333"
       y="0.000000"
       x="0.000000"><tspan
         id="tspan331"
         style="fill:#1F1A17;font-size:48.000000px;font-style:normal;font-variant:normal;font-weight:400;font-stretch:Normal;font-family:Arial;"
         dy="0.000000"
         dx="0.000000">m</tspan></tspan></text>
  <text
     id="text341"
     y="0.000000"
     x="0.000000"
     transform="matrix(0.819152,0.573576,-0.573576,0.819152,544.288416,105.424470)"
     style="font-size:48.000000px;font-style:normal;font-variant:normal;font-weight:400;font-stretch:Normal;line-height:125.000000%;letter-spacing:0px;word-spacing:0px;fill:#000000;fill-opacity:1;stroke:none;font-family:Arial;text-align:start;text-anchor:start;"
     xml:space="preserve"><tspan
       id="tspan339"
       y="0.000000"
       x="0.000000"><tspan
         id="tspan337"
         style="fill:#1F1A17;font-size:48.000000px;font-style:normal;font-variant:normal;font-weight:400;font-stretch:Normal;font-family:Arial;"
         dy="0.000000"
         dx="0.000000">a</tspan></tspan></text>
  <text
     id="text347"
     y="0.000000"
     x="0.000000"
     transform="matrix(0.788011,0.615661,-0.615661,0.788011,566.192592,120.792060)"
     style="font-size:48.000000px;font-style:normal;font-variant:normal;font-weight:400;font-stretch:Normal;line-height:125.000000%;letter-spacing:0px;word-spacing:0px;fill:#000000;fill-opacity:1;stroke:none;font-family:Arial;text-align:start;text-anchor:start;"
     xml:space="preserve"><tspan
       id="tspan345"
       y="0.000000"
       x="0.000000"><tspan
         id="tspan343"
         style="fill:#1F1A17;font-size:48.000000px;font-style:normal;font-variant:normal;font-weight:400;font-stretch:Normal;font-family:Arial;"
         dy="0.000000"
         dx="0.000000">ç</tspan></tspan></text>
  <text
     id="text353"
     y="0.000000"
     x="0.000000"
     transform="matrix(0.731354,0.681998,-0.681998,0.731354,584.407152,136.159650)"
     style="font-size:48.000000px;font-style:normal;font-variant:normal;font-weight:400;font-stretch:Normal;line-height:125.000000%;letter-spacing:0px;word-spacing:0px;fill:#000000;fill-opacity:1;stroke:none;font-family:Arial;text-align:start;text-anchor:start;"
     xml:space="preserve"><tspan
       id="tspan351"
       y="0.000000"
       x="0.000000"><tspan
         id="tspan349"
         style="fill:#1F1A17;font-size:48.000000px;font-style:normal;font-variant:normal;font-weight:400;font-stretch:Normal;font-family:Arial;"
         dy="0.000000"
         dx="0.000000">ã</tspan></tspan></text>
  <text
     id="text359"
     y="0.000000"
     x="0.000000"
     transform="matrix(0.656059,0.754710,-0.754710,0.656059,603.882720,154.376550)"
     style="font-size:48.000000px;font-style:normal;font-variant:normal;font-weight:400;font-stretch:Normal;line-height:125.000000%;letter-spacing:0px;word-spacing:0px;fill:#000000;fill-opacity:1;stroke:none;font-family:Arial;text-align:start;text-anchor:start;"
     xml:space="preserve"><tspan
       id="tspan357"
       y="0.000000"
       x="0.000000"><tspan
         id="tspan355"
         style="fill:#1F1A17;font-size:48.000000px;font-style:normal;font-variant:normal;font-weight:400;font-stretch:Normal;font-family:Arial;"
         dy="0.000000"
         dx="0.000000">o</tspan></tspan></text>
  <text
     id="text365"
     y="0.000000"
     x="0.000000"
     transform="matrix(0.629320,0.777146,-0.777146,0.629320,621.490128,174.555270)"
     style="font-size:48.000000px;font-style:normal;font-variant:normal;font-weight:400;font-stretch:Normal;line-height:125.000000%;letter-spacing:0px;word-spacing:0px;fill:#000000;fill-opacity:1;stroke:none;font-family:Arial;text-align:start;text-anchor:start;"
     xml:space="preserve"><tspan
       id="tspan363"
       y="0.000000"
       x="0.000000"><tspan
         id="tspan361"
         style="fill:#1F1A17;font-size:48.000000px;font-style:normal;font-variant:normal;font-weight:400;font-stretch:Normal;font-family:Arial;"
         dy="0.000000"
         dx="0.000000" /></tspan></text>
  <text
     id="text371"
     y="0.000000"
     x="0.000000"
     transform="matrix(0.325568,0.945519,-0.945519,0.325568,672.957936,267.181200)"
     style="font-size:48.000000px;font-style:normal;font-variant:normal;font-weight:400;font-stretch:Normal;line-height:125.000000%;letter-spacing:0px;word-spacing:0px;fill:#000000;fill-opacity:1;stroke:none;font-family:Arial;text-align:start;text-anchor:start;"
     xml:space="preserve"><tspan
       id="tspan369"
       y="0.000000"
       x="0.000000"><tspan
         id="tspan367"
         style="fill:#1F1A17;font-size:48.000000px;font-style:normal;font-variant:normal;font-weight:400;font-stretch:Normal;font-family:Arial;"
         dy="0.000000"
         dx="0.000000">I</tspan></tspan></text>
  <text
     id="text377"
     y="0.000000"
     x="0.000000"
     transform="matrix(0.275637,0.961262,-0.961262,0.275637,677.161296,279.652770)"
     style="font-size:48.000000px;font-style:normal;font-variant:normal;font-weight:400;font-stretch:Normal;line-height:125.000000%;letter-spacing:0px;word-spacing:0px;fill:#000000;fill-opacity:1;stroke:none;font-family:Arial;text-align:start;text-anchor:start;"
     xml:space="preserve"><tspan
       id="tspan375"
       y="0.000000"
       x="0.000000"><tspan
         id="tspan373"
         style="fill:#1F1A17;font-size:48.000000px;font-style:normal;font-variant:normal;font-weight:400;font-stretch:Normal;font-family:Arial;"
         dy="0.000000"
         dx="0.000000">n</tspan></tspan></text>
  <text
     id="text383"
     y="0.000000"
     x="0.000000"
     transform="matrix(0.190809,0.981627,-0.981627,0.190809,684.166896,305.576820)"
     style="font-size:48.000000px;font-style:normal;font-variant:normal;font-weight:400;font-stretch:Normal;line-height:125.000000%;letter-spacing:0px;word-spacing:0px;fill:#000000;fill-opacity:1;stroke:none;font-family:Arial;text-align:start;text-anchor:start;"
     xml:space="preserve"><tspan
       id="tspan381"
       y="0.000000"
       x="0.000000"><tspan
         id="tspan379"
         style="fill:#1F1A17;font-size:48.000000px;font-style:normal;font-variant:normal;font-weight:400;font-stretch:Normal;font-family:Arial;"
         dy="0.000000"
         dx="0.000000">f</tspan></tspan></text>
  <text
     id="text389"
     y="0.000000"
     x="0.000000"
     transform="matrix(0.139173,0.990268,-0.990268,0.139173,686.969136,318.515490)"
     style="font-size:48.000000px;font-style:normal;font-variant:normal;font-weight:400;font-stretch:Normal;line-height:125.000000%;letter-spacing:0px;word-spacing:0px;fill:#000000;fill-opacity:1;stroke:none;font-family:Arial;text-align:start;text-anchor:start;"
     xml:space="preserve"><tspan
       id="tspan387"
       y="0.000000"
       x="0.000000"><tspan
         id="tspan385"
         style="fill:#1F1A17;font-size:48.000000px;font-style:normal;font-variant:normal;font-weight:400;font-stretch:Normal;font-family:Arial;"
         dy="0.000000"
         dx="0.000000">r</tspan></tspan></text>
  <text
     id="text395"
     y="0.000000"
     x="0.000000"
     transform="matrix(0.087156,0.996195,-0.996195,0.087156,689.024112,334.396890)"
     style="font-size:48.000000px;font-style:normal;font-variant:normal;font-weight:400;font-stretch:Normal;line-height:125.000000%;letter-spacing:0px;word-spacing:0px;fill:#000000;fill-opacity:1;stroke:none;font-family:Arial;text-align:start;text-anchor:start;"
     xml:space="preserve"><tspan
       id="tspan393"
       y="0.000000"
       x="0.000000"><tspan
         id="tspan391"
         style="fill:#1F1A17;font-size:48.000000px;font-style:normal;font-variant:normal;font-weight:400;font-stretch:Normal;font-family:Arial;"
         dy="0.000000"
         dx="0.000000">a</tspan></tspan></text>
  <text
     id="text401"
     y="0.000000"
     x="0.000000"
     transform="matrix(0.034899,0.999391,-0.999391,0.034899,691.219200,361.255140)"
     style="font-size:48.000000px;font-style:normal;font-variant:normal;font-weight:400;font-stretch:Normal;line-height:125.000000%;letter-spacing:0px;word-spacing:0px;fill:#000000;fill-opacity:1;stroke:none;font-family:Arial;text-align:start;text-anchor:start;"
     xml:space="preserve"><tspan
       id="tspan399"
       y="0.000000"
       x="0.000000"><tspan
         id="tspan397"
         style="fill:#1F1A17;font-size:48.000000px;font-style:normal;font-variant:normal;font-weight:400;font-stretch:Normal;font-family:Arial;"
         dy="0.000000"
         dx="0.000000">-</tspan></tspan></text>
  <text
     id="text407"
     y="0.000000"
     x="0.000000"
     transform="matrix(-0.069756,0.997564,-0.997564,-0.069756,691.873056,377.089830)"
     style="font-size:48.000000px;font-style:normal;font-variant:normal;font-weight:400;font-stretch:Normal;line-height:125.000000%;letter-spacing:0px;word-spacing:0px;fill:#000000;fill-opacity:1;stroke:none;font-family:Arial;text-align:start;text-anchor:start;"
     xml:space="preserve"><tspan
       id="tspan405"
       y="0.000000"
       x="0.000000"><tspan
         id="tspan403"
         style="fill:#1F1A17;font-size:48.000000px;font-style:normal;font-variant:normal;font-weight:400;font-stretch:Normal;font-family:Arial;"
         dy="0.000000"
         dx="0.000000">E</tspan></tspan></text>
  <text
     id="text413"
     y="0.000000"
     x="0.000000"
     transform="matrix(-0.121869,0.992546,-0.992546,-0.121869,689.304336,409.226310)"
     style="font-size:48.000000px;font-style:normal;font-variant:normal;font-weight:400;font-stretch:Normal;line-height:125.000000%;letter-spacing:0px;word-spacing:0px;fill:#000000;fill-opacity:1;stroke:none;font-family:Arial;text-align:start;text-anchor:start;"
     xml:space="preserve"><tspan
       id="tspan411"
       y="0.000000"
       x="0.000000"><tspan
         id="tspan409"
         style="fill:#1F1A17;font-size:48.000000px;font-style:normal;font-variant:normal;font-weight:400;font-stretch:Normal;font-family:Arial;"
         dy="0.000000"
         dx="0.000000">s</tspan></tspan></text>
  <text
     id="text419"
     y="0.000000"
     x="0.000000"
     transform="matrix(-0.224951,0.974370,-0.974370,-0.224951,685.941648,432.768150)"
     style="font-size:48.000000px;font-style:normal;font-variant:normal;font-weight:400;font-stretch:Normal;line-height:125.000000%;letter-spacing:0px;word-spacing:0px;fill:#000000;fill-opacity:1;stroke:none;font-family:Arial;text-align:start;text-anchor:start;"
     xml:space="preserve"><tspan
       id="tspan417"
       y="0.000000"
       x="0.000000"><tspan
         id="tspan415"
         style="fill:#1F1A17;font-size:48.000000px;font-style:normal;font-variant:normal;font-weight:400;font-stretch:Normal;font-family:Arial;"
         dy="0.000000"
         dx="0.000000">t</tspan></tspan></text>
  <text
     id="text425"
     y="0.000000"
     x="0.000000"
     transform="matrix(-0.258819,0.965926,-0.965926,-0.258819,683.466336,445.706820)"
     style="font-size:48.000000px;font-style:normal;font-variant:normal;font-weight:400;font-stretch:Normal;line-height:125.000000%;letter-spacing:0px;word-spacing:0px;fill:#000000;fill-opacity:1;stroke:none;font-family:Arial;text-align:start;text-anchor:start;"
     xml:space="preserve"><tspan
       id="tspan423"
       y="0.000000"
       x="0.000000"><tspan
         id="tspan421"
         style="fill:#1F1A17;font-size:48.000000px;font-style:normal;font-variant:normal;font-weight:400;font-stretch:Normal;font-family:Arial;"
         dy="0.000000"
         dx="0.000000">r</tspan></tspan></text>
  <text
     id="text431"
     y="0.000000"
     x="0.000000"
     transform="matrix(-0.309017,0.951057,-0.951057,-0.309017,679.262976,461.541510)"
     style="font-size:48.000000px;font-style:normal;font-variant:normal;font-weight:400;font-stretch:Normal;line-height:125.000000%;letter-spacing:0px;word-spacing:0px;fill:#000000;fill-opacity:1;stroke:none;font-family:Arial;text-align:start;text-anchor:start;"
     xml:space="preserve"><tspan
       id="tspan429"
       y="0.000000"
       x="0.000000"><tspan
         id="tspan427"
         style="fill:#1F1A17;font-size:48.000000px;font-style:normal;font-variant:normal;font-weight:400;font-stretch:Normal;font-family:Arial;"
         dy="0.000000"
         dx="0.000000">u</tspan></tspan></text>
  <text
     id="text437"
     y="0.000000"
     x="0.000000"
     transform="matrix(-0.358368,0.933580,-0.933580,-0.358368,670.949664,486.531360)"
     style="font-size:48.000000px;font-style:normal;font-variant:normal;font-weight:400;font-stretch:Normal;line-height:125.000000%;letter-spacing:0px;word-spacing:0px;fill:#000000;fill-opacity:1;stroke:none;font-family:Arial;text-align:start;text-anchor:start;"
     xml:space="preserve"><tspan
       id="tspan435"
       y="0.000000"
       x="0.000000"><tspan
         id="tspan433"
         style="fill:#1F1A17;font-size:48.000000px;font-style:normal;font-variant:normal;font-weight:400;font-stretch:Normal;font-family:Arial;"
         dy="0.000000"
         dx="0.000000">t</tspan></tspan></text>
  <text
     id="text443"
     y="0.000000"
     x="0.000000"
     transform="matrix(-0.406737,0.913545,-0.913545,-0.406737,665.532000,499.002930)"
     style="font-size:48.000000px;font-style:normal;font-variant:normal;font-weight:400;font-stretch:Normal;line-height:125.000000%;letter-spacing:0px;word-spacing:0px;fill:#000000;fill-opacity:1;stroke:none;font-family:Arial;text-align:start;text-anchor:start;"
     xml:space="preserve"><tspan
       id="tspan441"
       y="0.000000"
       x="0.000000"><tspan
         id="tspan439"
         style="fill:#1F1A17;font-size:48.000000px;font-style:normal;font-variant:normal;font-weight:400;font-stretch:Normal;font-family:Arial;"
         dy="0.000000"
         dx="0.000000">u</tspan></tspan></text>
  <text
     id="text449"
     y="0.000000"
     x="0.000000"
     transform="matrix(-0.484810,0.874620,-0.874620,-0.484810,654.323040,523.011870)"
     style="font-size:48.000000px;font-style:normal;font-variant:normal;font-weight:400;font-stretch:Normal;line-height:125.000000%;letter-spacing:0px;word-spacing:0px;fill:#000000;fill-opacity:1;stroke:none;font-family:Arial;text-align:start;text-anchor:start;"
     xml:space="preserve"><tspan
       id="tspan447"
       y="0.000000"
       x="0.000000"><tspan
         id="tspan445"
         style="fill:#1F1A17;font-size:48.000000px;font-style:normal;font-variant:normal;font-weight:400;font-stretch:Normal;font-family:Arial;"
         dy="0.000000"
         dx="0.000000">r</tspan></tspan></text>
  <text
     id="text455"
     y="0.000000"
     x="0.000000"
     transform="matrix(-0.529919,0.848048,-0.848048,-0.529919,646.336656,536.931450)"
     style="font-size:48.000000px;font-style:normal;font-variant:normal;font-weight:400;font-stretch:Normal;line-height:125.000000%;letter-spacing:0px;word-spacing:0px;fill:#000000;fill-opacity:1;stroke:none;font-family:Arial;text-align:start;text-anchor:start;"
     xml:space="preserve"><tspan
       id="tspan453"
       y="0.000000"
       x="0.000000"><tspan
         id="tspan451"
         style="fill:#1F1A17;font-size:48.000000px;font-style:normal;font-variant:normal;font-weight:400;font-stretch:Normal;font-family:Arial;"
         dy="0.000000"
         dx="0.000000">a</tspan></tspan></text>
  <text
     id="text461"
     y="0.000000"
     x="0.000000"
     transform="matrix(-0.615661,0.788011,-0.788011,-0.615661,631.718304,559.492380)"
     style="font-size:48.000000px;font-style:normal;font-variant:normal;font-weight:400;font-stretch:Normal;line-height:125.000000%;letter-spacing:0px;word-spacing:0px;fill:#000000;fill-opacity:1;stroke:none;font-family:Arial;text-align:start;text-anchor:start;"
     xml:space="preserve"><tspan
       id="tspan459"
       y="0.000000"
       x="0.000000"><tspan
         id="tspan457"
         style="fill:#1F1A17;font-size:48.000000px;font-style:normal;font-variant:normal;font-weight:400;font-stretch:Normal;font-family:Arial;"
         dy="0.000000"
         dx="0.000000" /></tspan></text>
  <text
     id="text467"
     y="0.000000"
     x="0.000000"
     transform="matrix(-0.838671,0.544639,-0.544639,-0.838671,557.085312,633.387600)"
     style="font-size:48.000000px;font-style:normal;font-variant:normal;font-weight:400;font-stretch:Normal;line-height:125.000000%;letter-spacing:0px;word-spacing:0px;fill:#000000;fill-opacity:1;stroke:none;font-family:Arial;text-align:start;text-anchor:start;"
     xml:space="preserve"><tspan
       id="tspan465"
       y="0.000000"
       x="0.000000"><tspan
         id="tspan463"
         style="fill:#1F1A17;font-size:48.000000px;font-style:normal;font-variant:normal;font-weight:400;font-stretch:Normal;font-family:Arial;"
         dy="0.000000"
         dx="0.000000">T</tspan></tspan></text>
  <text
     id="text473"
     y="0.000000"
     x="0.000000"
     transform="matrix(-0.866025,0.500000,-0.500000,-0.866025,536.955888,646.326270)"
     style="font-size:48.000000px;font-style:normal;font-variant:normal;font-weight:400;font-stretch:Normal;line-height:125.000000%;letter-spacing:0px;word-spacing:0px;fill:#000000;fill-opacity:1;stroke:none;font-family:Arial;text-align:start;text-anchor:start;"
     xml:space="preserve"><tspan
       id="tspan471"
       y="0.000000"
       x="0.000000"><tspan
         id="tspan469"
         style="fill:#1F1A17;font-size:48.000000px;font-style:normal;font-variant:normal;font-weight:400;font-stretch:Normal;font-family:Arial;"
         dy="0.000000"
         dx="0.000000">e</tspan></tspan></text>
  <text
     id="text479"
     y="0.000000"
     x="0.000000"
     transform="matrix(-0.927184,0.374607,-0.374607,-0.927184,513.744000,659.778750)"
     style="font-size:48.000000px;font-style:normal;font-variant:normal;font-weight:400;font-stretch:Normal;line-height:125.000000%;letter-spacing:0px;word-spacing:0px;fill:#000000;fill-opacity:1;stroke:none;font-family:Arial;text-align:start;text-anchor:start;"
     xml:space="preserve"><tspan
       id="tspan477"
       y="0.000000"
       x="0.000000"><tspan
         id="tspan475"
         style="fill:#1F1A17;font-size:48.000000px;font-style:normal;font-variant:normal;font-weight:400;font-stretch:Normal;font-family:Arial;"
         dy="0.000000"
         dx="0.000000">m</tspan></tspan></text>
  <text
     id="text485"
     y="0.000000"
     x="0.000000"
     transform="matrix(-0.961262,0.275637,-0.275637,-0.961262,476.427504,674.679240)"
     style="font-size:48.000000px;font-style:normal;font-variant:normal;font-weight:400;font-stretch:Normal;line-height:125.000000%;letter-spacing:0px;word-spacing:0px;fill:#000000;fill-opacity:1;stroke:none;font-family:Arial;text-align:start;text-anchor:start;"
     xml:space="preserve"><tspan
       id="tspan483"
       y="0.000000"
       x="0.000000"><tspan
         id="tspan481"
         style="fill:#1F1A17;font-size:48.000000px;font-style:normal;font-variant:normal;font-weight:400;font-stretch:Normal;font-family:Arial;"
         dy="0.000000"
         dx="0.000000">p</tspan></tspan></text>
  <text
     id="text491"
     y="0.000000"
     x="0.000000"
     transform="matrix(-0.970296,0.241922,-0.241922,-0.970296,450.833712,681.872580)"
     style="font-size:48.000000px;font-style:normal;font-variant:normal;font-weight:400;font-stretch:Normal;line-height:125.000000%;letter-spacing:0px;word-spacing:0px;fill:#000000;fill-opacity:1;stroke:none;font-family:Arial;text-align:start;text-anchor:start;"
     xml:space="preserve"><tspan
       id="tspan489"
       y="0.000000"
       x="0.000000"><tspan
         id="tspan487"
         style="fill:#1F1A17;font-size:48.000000px;font-style:normal;font-variant:normal;font-weight:400;font-stretch:Normal;font-family:Arial;"
         dy="0.000000"
         dx="0.000000">o</tspan></tspan></text>
  <path
     id="path493"
     d="  M 327.67526,333.78966   L 384.79426,333.78966   L 387.45638,333.83637   L 389.9784,333.92979   L 392.40701,334.11663   L 394.74221,334.35018   L 396.9373,334.63044   L 398.99227,335.05083   L 400.01976,335.23767   L 400.95384,335.47122   L 401.93462,335.75148   L 402.822,335.98503   L 404.59675,336.59226   L 406.2781,337.2462   L 407.91274,337.99356   L 409.50067,338.78763   L 410.24794,339.20802   L 410.9952,339.62841   L 411.74246,340.09551   L 412.44302,340.60932   L 413.14358,341.07642   L 413.79744,341.59023   L 414.498,342.15075   L 415.10515,342.71127   L 416.36616,343.83231   L 417.53376,345.04677   L 418.65466,346.30794   L 419.68214,347.61582   L 420.66293,348.97041   L 421.5503,350.37171   L 422.34427,351.86643   L 423.09154,353.36115   L 423.74539,354.90258   L 424.30584,356.49072   L 424.77288,358.07886   L 425.19322,359.71371   L 425.47344,361.34856   L 425.70696,363.03012   L 425.80037,364.71168   L 425.84707,366.39324   L 425.84707,368.12151   L 425.70696,369.80307   L 425.47344,371.43792   L 425.19322,373.07277   L 424.81958,374.66091   L 424.35254,376.20234   L 423.8388,377.69706   L 423.18494,379.14507   L 422.48438,380.59308   L 421.69042,381.99438   L 420.84974,383.34897   L 419.86896,384.70356   L 418.84147,386.01144   L 417.72058,387.27261   L 416.50627,388.48707   L 415.19856,389.65482   L 414.5447,390.26205   L 413.84414,390.82257   L 413.14358,391.33638   L 412.39632,391.85019   L 411.69576,392.364   L 410.9485,392.87781   L 410.15453,393.34491   L 409.36056,393.7653   L 407.77262,394.60608   L 406.09128,395.40015   L 404.31653,396.1008   L 402.54178,396.70803   L 400.67362,397.26855   L 398.71205,397.73565   L 396.75048,398.15604   L 394.6955,398.48301   L 392.54712,398.71656   L 390.35203,398.9034   L 388.11024,398.99682   L 385.82174,399.04353   L 367.32696,399.04353   L 367.32696,419.31567   L 367.37366,420.99723   L 367.46707,422.39853   L 367.56048,422.95905   L 367.65389,423.42615   L 367.794,423.79983   L 367.88741,424.08009   L 368.07422,424.45377   L 368.30774,424.78074   L 368.54126,425.061   L 368.77478,425.38797   L 369.05501,425.62152   L 369.33523,425.85507   L 369.66216,426.08862   L 370.03579,426.27546   L 370.40942,426.41559   L 370.87646,426.55572   L 371.39021,426.69585   L 371.95066,426.78927   L 372.55781,426.88269   L 373.25837,426.9294   L 374.05234,426.97611   L 374.8463,426.97611   L 380.35738,426.97611   L 380.35738,441.92331   L 327.67526,441.92331   L 327.67526,426.97611   L 331.31818,426.97611   L 332.48578,426.97611   L 333.51326,426.9294   L 334.44734,426.88269   L 335.28802,426.78927   L 336.03528,426.69585   L 336.68914,426.55572   L 337.24958,426.41559   L 337.66992,426.27546   L 338.04355,426.08862   L 338.37048,425.85507   L 338.69741,425.62152   L 339.02434,425.38797   L 339.25786,425.061   L 339.53808,424.78074   L 339.7249,424.40706   L 339.91171,424.08009   L 340.09853,423.61299   L 340.23864,423.09918   L 340.33205,422.49195   L 340.47216,421.74459   L 340.51886,420.90381   L 340.56557,419.96961   L 340.61227,418.94199   L 340.61227,417.82095   L 340.61227,358.35912   L 340.61227,357.19137   L 340.61227,356.07033   L 340.51886,355.08942   L 340.47216,354.24864   L 340.37875,353.45457   L 340.28534,352.80063   L 340.14523,352.24011   L 340.00512,351.81972   L 339.8183,351.39933   L 339.63149,351.07236   L 339.44467,350.74539   L 339.21115,350.41842   L 338.93093,350.13816   L 338.6507,349.90461   L 338.32378,349.67106   L 337.99685,349.48422   L 337.62322,349.29738   L 337.20288,349.15725   L 336.64243,349.01712   L 336.03528,348.9237   L 335.38142,348.87699   L 334.63416,348.78357   L 333.79349,348.78357   L 332.85941,348.73686   L 327.67526,348.73686   L 327.67526,333.78966  z    M 367.32696,351.44604   L 367.32696,382.13451   L 376.57435,382.13451   L 378.62933,382.13451   L 380.54419,382.04109   L 382.27224,381.90096   L 383.90688,381.71412   L 385.40141,381.48057   L 386.70912,381.1536   L 387.36298,381.01347   L 387.92342,380.82663   L 388.48387,380.59308   L 388.99762,380.40624   L 389.9317,379.93914   L 390.86578,379.42533   L 391.70645,378.8181   L 392.54712,378.21087   L 393.29438,377.51022   L 394.04165,376.76286   L 394.6955,375.92208   L 395.34936,375.03459   L 395.90981,374.1471   L 396.37685,373.16619   L 396.79718,372.13857   L 397.12411,371.11095   L 397.40434,370.03662   L 397.59115,368.86887   L 397.68456,367.70112   L 397.73126,366.48666   L 397.73126,365.55246   L 397.63786,364.66497   L 397.54445,363.82419   L 397.40434,362.98341   L 397.17082,362.14263   L 396.9373,361.34856   L 396.65707,360.55449   L 396.28344,359.80713   L 395.90981,359.10648   L 395.48947,358.40583   L 395.02243,357.70518   L 394.50869,357.05124   L 393.94824,356.44401   L 393.34109,355.83678   L 392.68723,355.27626   L 391.98667,354.71574   L 391.47293,354.29535   L 390.86578,353.96838   L 390.25862,353.5947   L 389.60477,353.26773   L 388.95091,352.98747   L 388.20365,352.70721   L 387.45638,352.47366   L 386.70912,352.28682   L 385.91515,352.09998   L 385.07448,351.91314   L 384.1871,351.77301   L 383.29973,351.67959   L 382.36565,351.58617   L 381.38486,351.49275   L 380.40408,351.49275   L 379.37659,351.44604   L 367.32696,351.44604  z   "
     style="fill:#ffffff;fill-rule:nonzero;fill-opacity:1;stroke:none;" />
  <path
     id="path495"
     d="  M 327.67526,333.78966   L 384.79426,333.78966   L 387.45638,333.83637   L 389.9784,333.92979   L 392.40701,334.11663   L 394.74221,334.35018   L 396.9373,334.63044   L 398.99227,335.05083   L 400.01976,335.23767   L 400.95384,335.47122   L 401.93462,335.75148   L 402.822,335.98503   L 404.59675,336.59226   L 406.2781,337.2462   L 407.91274,337.99356   L 409.50067,338.78763   L 410.24794,339.20802   L 410.9952,339.62841   L 411.74246,340.09551   L 412.44302,340.60932   L 413.14358,341.07642   L 413.79744,341.59023   L 414.498,342.15075   L 415.10515,342.71127   L 416.36616,343.83231   L 417.53376,345.04677   L 418.65466,346.30794   L 419.68214,347.61582   L 420.66293,348.97041   L 421.5503,350.37171   L 422.34427,351.86643   L 423.09154,353.36115   L 423.74539,354.90258   L 424.30584,356.49072   L 424.77288,358.07886   L 425.19322,359.71371   L 425.47344,361.34856   L 425.70696,363.03012   L 425.80037,364.71168   L 425.84707,366.39324   L 425.84707,368.12151   L 425.70696,369.80307   L 425.47344,371.43792   L 425.19322,373.07277   L 424.81958,374.66091   L 424.35254,376.20234   L 423.8388,377.69706   L 423.18494,379.14507   L 422.48438,380.59308   L 421.69042,381.99438   L 420.84974,383.34897   L 419.86896,384.70356   L 418.84147,386.01144   L 417.72058,387.27261   L 416.50627,388.48707   L 415.19856,389.65482   L 414.5447,390.26205   L 413.84414,390.82257   L 413.14358,391.33638   L 412.39632,391.85019   L 411.69576,392.364   L 410.9485,392.87781   L 410.15453,393.34491   L 409.36056,393.7653   L 407.77262,394.60608   L 406.09128,395.40015   L 404.31653,396.1008   L 402.54178,396.70803   L 400.67362,397.26855   L 398.71205,397.73565   L 396.75048,398.15604   L 394.6955,398.48301   L 392.54712,398.71656   L 390.35203,398.9034   L 388.11024,398.99682   L 385.82174,399.04353   L 367.32696,399.04353   L 367.32696,419.31567   L 367.37366,420.99723   L 367.46707,422.39853   L 367.56048,422.95905   L 367.65389,423.42615   L 367.794,423.79983   L 367.88741,424.08009   L 368.07422,424.45377   L 368.30774,424.78074   L 368.54126,425.061   L 368.77478,425.38797   L 369.05501,425.62152   L 369.33523,425.85507   L 369.66216,426.08862   L 370.03579,426.27546   L 370.40942,426.41559   L 370.87646,426.55572   L 371.39021,426.69585   L 371.95066,426.78927   L 372.55781,426.88269   L 373.25837,426.9294   L 374.05234,426.97611   L 374.8463,426.97611   L 380.35738,426.97611   L 380.35738,441.92331   L 327.67526,441.92331   L 327.67526,426.97611   L 331.31818,426.97611   L 332.48578,426.97611   L 333.51326,426.9294   L 334.44734,426.88269   L 335.28802,426.78927   L 336.03528,426.69585   L 336.68914,426.55572   L 337.24958,426.41559   L 337.66992,426.27546   L 338.04355,426.08862   L 338.37048,425.85507   L 338.69741,425.62152   L 339.02434,425.38797   L 339.25786,425.061   L 339.53808,424.78074   L 339.7249,424.40706   L 339.91171,424.08009   L 340.09853,423.61299   L 340.23864,423.09918   L 340.33205,422.49195   L 340.47216,421.74459   L 340.51886,420.90381   L 340.56557,419.96961   L 340.61227,418.94199   L 340.61227,417.82095   L 340.61227,358.35912   L 340.61227,357.19137   L 340.61227,356.07033   L 340.51886,355.08942   L 340.47216,354.24864   L 340.37875,353.45457   L 340.28534,352.80063   L 340.14523,352.24011   L 340.00512,351.81972   L 339.8183,351.39933   L 339.63149,351.07236   L 339.44467,350.74539   L 339.21115,350.41842   L 338.93093,350.13816   L 338.6507,349.90461   L 338.32378,349.67106   L 337.99685,349.48422   L 337.62322,349.29738   L 337.20288,349.15725   L 336.64243,349.01712   L 336.03528,348.9237   L 335.38142,348.87699   L 334.63416,348.78357   L 333.79349,348.78357   L 332.85941,348.73686   L 327.67526,348.73686   L 327.67526,333.78966  "
     style="fill:none;stroke:#1f1a17;stroke-width:0.280224px;stroke-linecap:round;stroke-linejoin:round;stroke-miterlimit:4;stroke-dasharray:none;stroke-opacity:1;" />
  <path
     id="path497"
     d="  M 367.32696,351.44604   L 367.32696,382.13451   L 376.57435,382.13451   L 378.62933,382.13451   L 380.54419,382.04109   L 382.27224,381.90096   L 383.90688,381.71412   L 385.40141,381.48057   L 386.70912,381.1536   L 387.36298,381.01347   L 387.92342,380.82663   L 388.48387,380.59308   L 388.99762,380.40624   L 389.9317,379.93914   L 390.86578,379.42533   L 391.70645,378.8181   L 392.54712,378.21087   L 393.29438,377.51022   L 394.04165,376.76286   L 394.6955,375.92208   L 395.34936,375.03459   L 395.90981,374.1471   L 396.37685,373.16619   L 396.79718,372.13857   L 397.12411,371.11095   L 397.40434,370.03662   L 397.59115,368.86887   L 397.68456,367.70112   L 397.73126,366.48666   L 397.73126,365.55246   L 397.63786,364.66497   L 397.54445,363.82419   L 397.40434,362.98341   L 397.17082,362.14263   L 396.9373,361.34856   L 396.65707,360.55449   L 396.28344,359.80713   L 395.90981,359.10648   L 395.48947,358.40583   L 395.02243,357.70518   L 394.50869,357.05124   L 393.94824,356.44401   L 393.34109,355.83678   L 392.68723,355.27626   L 391.98667,354.71574   L 391.47293,354.29535   L 390.86578,353.96838   L 390.25862,353.5947   L 389.60477,353.26773   L 388.95091,352.98747   L 388.20365,352.70721   L 387.45638,352.47366   L 386.70912,352.28682   L 385.91515,352.09998   L 385.07448,351.91314   L 384.1871,351.77301   L 383.29973,351.67959   L 382.36565,351.58617   L 381.38486,351.49275   L 380.40408,351.49275   L 379.37659,351.44604   L 367.32696,351.44604  "
     style="fill:none;stroke:#1f1a17;stroke-width:0.280224px;stroke-linecap:round;stroke-linejoin:round;stroke-miterlimit:4;stroke-dasharray:none;stroke-opacity:1;" />
  <text
     id="text503"
     y="0.000000"
     x="0.000000"
     transform="matrix(1.000000,-0.000000,0.000000,1.000000,318.241056,327.343680)"
     style="font-size:32.000000px;font-style:normal;font-variant:normal;font-weight:400;font-stretch:Normal;line-height:125.000000%;letter-spacing:0px;word-spacing:0px;fill:#000000;fill-opacity:1;stroke:none;font-family:Arial;text-align:start;text-anchor:start;"
     xml:space="preserve"><tspan
       id="tspan501"
       y="0.000000"
       x="0.000000"><tspan
         id="tspan499"
         style="fill:#1F1A17;font-size:32.000000px;font-style:normal;font-variant:normal;font-weight:400;font-stretch:Normal;font-family:Arial;"
         dy="0.000000"
         dx="0.000000">Produto</tspan></tspan></text>
</svg>
